<svg width="32" height="32" viewBox="0 0 32 32" fill="none" xmlns="http://www.w3.org/2000/svg">
<path d="M13 1.73205C14.8564 0.660254 17.1436 0.660254 19 1.73205L26.8564 6.26795C28.7128 7.33975 29.8564 9.32051 29.8564 11.4641V20.5359C29.8564 22.6795 28.7128 24.6603 26.8564 25.732L19 30.2679C17.1436 31.3397 14.8564 31.3397 13 30.268L5.14359 25.7321C3.28719 24.6603 2.14359 22.6795 2.14359 20.5359V11.4641C2.14359 9.32051 3.28719 7.33975 5.14359 6.26795L13 1.73205Z" fill="url(#paint0_linear_1214_29971)"/>
<path d="M13 1.73205C14.8564 0.660254 17.1436 0.660254 19 1.73205L26.8564 6.26795C28.7128 7.33975 29.8564 9.32051 29.8564 11.4641V20.5359C29.8564 22.6795 28.7128 24.6603 26.8564 25.732L19 30.2679C17.1436 31.3397 14.8564 31.3397 13 30.268L5.14359 25.7321C3.28719 24.6603 2.14359 22.6795 2.14359 20.5359V11.4641C2.14359 9.32051 3.28719 7.33975 5.14359 6.26795L13 1.73205Z" fill="url(#paint1_linear_1214_29971)"/>
<path d="M23.5834 22.5749L17.9856 9.04107C17.6699 8.34133 17.2005 8 16.5819 8H16.0869C15.4683 8 14.9989 8.34133 14.6832 9.04107L12.2469 14.9376H10.4037C9.85333 14.9419 9.40533 15.3856 9.40107 15.9403V15.9531C9.40533 16.5035 9.85333 16.9515 10.4037 16.9557H11.3936L9.06827 22.5749C9.0256 22.6987 9 22.8267 9 22.9589C9 23.2747 9.09813 23.5221 9.27307 23.7141C9.448 23.9061 9.69973 24 10.0155 24C10.2245 23.9957 10.4251 23.9317 10.5915 23.808C10.7707 23.6843 10.8944 23.5051 10.9925 23.3003L13.5525 16.9515H15.3275C15.8779 16.9472 16.3259 16.5035 16.3301 15.9488V15.9232C16.3259 15.3728 15.8779 14.9248 15.3275 14.9205H14.3803L16.3344 10.0523L21.6592 23.296C21.7573 23.5008 21.8811 23.68 22.0603 23.8037C22.2267 23.9275 22.4314 23.9915 22.6362 23.9957C22.952 23.9957 23.1995 23.9019 23.3787 23.7099C23.5578 23.5179 23.6517 23.2704 23.6517 22.9547C23.656 22.8267 23.6346 22.6944 23.5834 22.5749Z" fill="white"/>
<defs>
<linearGradient id="paint0_linear_1214_29971" x1="16" y1="0" x2="16" y2="32" gradientUnits="userSpaceOnUse">
<stop stop-color="#F4BA45"/>
<stop offset="1" stop-color="#F19C3B"/>
</linearGradient>
<linearGradient id="paint1_linear_1214_29971" x1="27.9294" y1="5.96233" x2="4.12137" y2="25.9943" gradientUnits="userSpaceOnUse">
<stop stop-color="#B6509E"/>
<stop offset="1" stop-color="#2EBAC6"/>
</linearGradient>
</defs>
</svg>
