<svg width="32" height="32" viewBox="0 0 32 32" fill="none" xmlns="http://www.w3.org/2000/svg">
<path d="M13 1.73205C14.8564 0.660254 17.1436 0.660254 19 1.73205L26.8564 6.26795C28.7128 7.33975 29.8564 9.32051 29.8564 11.4641V20.5359C29.8564 22.6795 28.7128 24.6603 26.8564 25.732L19 30.2679C17.1436 31.3397 14.8564 31.3397 13 30.268L5.14359 25.7321C3.28719 24.6603 2.14359 22.6795 2.14359 20.5359V11.4641C2.14359 9.32051 3.28719 7.33975 5.14359 6.26795L13 1.73205Z" fill="url(#paint0_linear_1109_52142)"/>
<path d="M15.816 9.04101C16.1429 8.87055 16.542 9.26601 16.368 9.59265C16.2671 9.85887 15.8846 9.92967 15.6893 9.72675C15.4825 9.53193 15.55 9.14697 15.816 9.04101ZM12.2995 9.41997C12.4981 9.33819 12.7496 9.52017 12.7293 9.73665C12.7503 9.97161 12.463 10.1447 12.2606 10.0329C11.9924 9.92907 12.0231 9.49365 12.2995 9.42003V9.41997ZM19.5015 10.0395C19.1912 10.002 19.1421 9.51411 19.4409 9.41553C19.6727 9.30249 19.8852 9.51447 19.9191 9.73413C19.8705 9.92169 19.7135 10.0935 19.5015 10.0392V10.0395ZM13.0995 10.9164C13.4316 10.7064 13.9053 11.0191 13.8543 11.4048C13.8371 11.7942 13.3198 12.0198 13.028 11.7565C12.746 11.5497 12.7886 11.0753 13.0995 10.9165V10.9164ZM18.1681 11.1393C18.3164 10.758 18.9166 10.746 19.0852 11.118C19.2518 11.4072 19.0469 11.7653 18.75 11.8636C18.3567 11.937 17.9831 11.5119 18.1683 11.1396L18.1681 11.1393ZM15.3925 11.8418C15.3893 11.5137 15.6881 11.2692 16 11.2469C16.2068 11.2883 16.4323 11.3765 16.521 11.5852C16.6864 11.8732 16.5396 12.2696 16.2408 12.4017C16.1042 12.4783 15.9426 12.4497 15.7938 12.4407C15.5663 12.329 15.3747 12.11 15.3926 11.8419L15.3925 11.8418ZM10.1631 12.3199C10.4664 12.1334 10.8756 12.4737 10.7608 12.8032C10.6975 13.0882 10.3144 13.2041 10.0954 13.0222C9.86144 12.8517 9.8987 12.4418 10.1631 12.3199ZM21.3925 12.3193C21.6499 12.1195 22.0745 12.3487 22.0438 12.6733C22.0611 12.9696 21.694 13.193 21.4385 13.0404C21.1571 12.914 21.1285 12.4812 21.3925 12.319V12.3193ZM16.8631 12.9089C17.2877 12.7563 17.7921 12.9389 18.0342 13.3175C18.3534 13.7803 18.1836 14.4851 17.6881 14.7507C17.1747 15.0648 16.4251 14.7987 16.2355 14.2253C16.0202 13.712 16.3338 13.0697 16.8631 12.9089ZM14.3716 12.9597C14.8422 12.7377 15.4756 12.9237 15.7029 13.4053C15.9705 13.8739 15.7636 14.5264 15.2853 14.7683C14.8065 15.0403 14.1309 14.8343 13.8993 14.331C13.6392 13.8445 13.87 13.1837 14.3716 12.9597ZM11.8768 13.8126C11.9128 13.5093 12.1987 13.3121 12.4873 13.2916C12.7983 13.3291 13.0467 13.5706 13.0805 13.8856C13.0601 14.1971 12.8193 14.5017 12.4891 14.4998C12.1259 14.531 11.8075 14.1698 11.8768 13.8128V13.8126ZM19.2455 13.3578C19.6184 13.1407 20.1362 13.4567 20.1196 13.8851C20.1452 14.339 19.5721 14.6591 19.2008 14.3927C18.815 14.171 18.8451 13.5467 19.2455 13.3578V13.3578ZM13.3577 14.9573C13.7938 14.8373 14.2925 15.0429 14.5064 15.4437C14.7404 15.8472 14.6449 16.4078 14.281 16.7037C13.8143 17.1378 12.9535 16.9635 12.7051 16.3711C12.4197 15.828 12.7664 15.1002 13.3577 14.9573V14.9573ZM18.0833 14.955C18.5073 14.8338 19.0053 14.997 19.2333 15.3834C19.5347 15.8252 19.3908 16.4841 18.9422 16.7688C18.4722 17.0995 17.7443 16.9259 17.4857 16.4088C17.1722 15.874 17.4876 15.1182 18.0833 14.955ZM10.5525 15.459C10.9293 15.3165 11.3469 15.7323 11.1942 16.1058C11.101 16.446 10.6215 16.572 10.3738 16.3209C10.0839 16.0854 10.1913 15.5612 10.5526 15.459H10.5525ZM20.764 16.0011C20.7532 15.6891 20.9815 15.4125 21.3016 15.3951C21.5596 15.4359 21.8105 15.6441 21.7901 15.9249C21.8137 16.2959 21.3667 16.548 21.0506 16.3737C20.9025 16.2984 20.8265 16.1465 20.764 16.0009V16.0011ZM8.70026 15.642C8.92688 15.543 9.20726 15.7395 9.15554 15.9912C9.14354 16.2762 8.72264 16.3857 8.56808 16.1476C8.43146 15.9825 8.51318 15.7275 8.70026 15.642ZM22.991 15.636C23.1506 15.5223 23.4067 15.604 23.4699 15.7905C23.5772 15.9941 23.3805 16.2731 23.1513 16.2387C22.8295 16.268 22.7253 15.7776 22.991 15.636ZM14.5888 17.004C15.1852 16.8489 15.8263 17.346 15.8301 17.9603C15.869 18.5809 15.2376 19.1312 14.6271 18.9878C14.1552 18.9119 13.7849 18.4573 13.8002 17.9804C13.799 17.5244 14.1431 17.1005 14.5889 17.004H14.5888ZM16.9508 17.0027C17.5561 16.8335 18.2163 17.3398 18.2067 17.9681C18.2387 18.5771 17.6269 19.1089 17.0292 18.9881C16.4667 18.9154 16.0517 18.2974 16.2087 17.7515C16.2879 17.3878 16.5918 17.092 16.9508 17.0027ZM12.3967 17.3807C12.8156 17.3093 13.2083 17.7767 13.0385 18.1743C12.9146 18.5981 12.2977 18.7131 12.025 18.3669C11.7052 18.0344 11.944 17.4266 12.3967 17.3807ZM19.3233 17.4C19.6968 17.2436 20.1553 17.5666 20.1266 17.972C20.1416 18.4183 19.5755 18.726 19.2103 18.4655C18.7963 18.2315 18.8719 17.5435 19.3233 17.4ZM21.2594 19.3419C21.1132 19.0693 21.3788 18.7079 21.6815 18.7584C21.8322 18.7559 21.9376 18.8746 22.034 18.9744C22.0538 19.136 22.0871 19.3284 21.953 19.4532C21.7709 19.6837 21.3584 19.6179 21.2594 19.3421V19.3419ZM10.162 18.8344C10.4449 18.646 10.852 18.9269 10.7884 19.2577C10.7545 19.5502 10.3864 19.7173 10.1434 19.5517C9.88292 19.401 9.89252 18.972 10.162 18.8347V18.8344ZM15.751 19.447C16.1214 19.2835 16.5932 19.606 16.5581 20.0139C16.5855 20.4646 16.0019 20.7768 15.6401 20.5059C15.2381 20.2735 15.3049 19.5897 15.7512 19.4468L15.751 19.447ZM13.162 20.0506C13.4774 19.8846 13.9008 20.1712 13.872 20.5246C13.8816 20.8144 13.5987 21.0615 13.3127 21.0187C13.0757 21.0136 12.9212 20.8012 12.8453 20.5992C12.8492 20.3791 12.9398 20.1339 13.162 20.0509V20.0506ZM18.4056 20.056C18.7299 19.8555 19.191 20.1434 19.1603 20.521C19.1687 20.9155 18.6476 21.1683 18.3456 20.9091C18.0531 20.7059 18.0888 20.2175 18.4056 20.056ZM19.3176 22.3102C19.1736 22.0919 19.3431 21.8288 19.5774 21.7791C19.7658 21.8174 19.965 21.9591 19.9254 22.1775C19.898 22.4731 19.4657 22.5638 19.3176 22.3102ZM12.0792 22.1206C12.1367 21.9476 12.2759 21.7756 12.4796 21.8206C12.7766 21.8417 12.8647 22.2892 12.6048 22.4272C12.3711 22.5847 12.0999 22.369 12.0792 22.1206ZM15.5712 22.3192C15.6281 22.0632 15.9594 21.9387 16.1778 22.0747C16.3218 22.1366 16.3643 22.2981 16.4013 22.4353C16.3815 22.5068 16.3638 22.5784 16.3464 22.6498C16.257 22.7558 16.1424 22.8618 15.9933 22.858C15.7168 22.8904 15.4674 22.5778 15.5712 22.3192Z" fill="white"/>
<defs>
<linearGradient id="paint0_linear_1109_52142" x1="16" y1="0" x2="16" y2="32" gradientUnits="userSpaceOnUse">
<stop stop-color="#1480EB"/>
<stop offset="1" stop-color="#1066BC"/>
</linearGradient>
</defs>
</svg>
