<svg width="32" height="32" viewBox="0 0 32 32" fill="none" xmlns="http://www.w3.org/2000/svg">
<path d="M13 1.73205C14.8564 0.660254 17.1436 0.660254 19 1.73205L26.8564 6.26795C28.7128 7.33975 29.8564 9.32051 29.8564 11.4641V20.5359C29.8564 22.6795 28.7128 24.6603 26.8564 25.732L19 30.2679C17.1436 31.3397 14.8564 31.3397 13 30.268L5.14359 25.7321C3.28719 24.6603 2.14359 22.6795 2.14359 20.5359V11.4641C2.14359 9.32051 3.28719 7.33975 5.14359 6.26795L13 1.73205Z" fill="#213147"/>
<path d="M17.4752 15.3034L16.3664 18.3457C16.339 18.4282 16.339 18.5198 16.3664 18.6115L18.2725 23.8439L20.4809 22.5702L17.8326 15.3034C17.7685 15.1385 17.5394 15.1385 17.4752 15.3034Z" fill="#12AAFF"/>
<path d="M19.702 10.1901C19.6379 10.0252 19.4088 10.0252 19.3446 10.1901L18.2358 13.2325C18.2083 13.3149 18.2083 13.4066 18.2358 13.4982L21.3606 22.0662L23.5691 20.7925L19.702 10.1993V10.1901Z" fill="#12AAFF"/>
<path d="M15.0652 8.00916H12.9301C12.7743 8.00916 12.6277 8.10996 12.5727 8.25658L8 20.7925L10.2084 22.0662L15.2485 8.25658C15.2943 8.12829 15.2026 8 15.0744 8L15.0652 8.00916Z" fill="white"/>
<path d="M18.8039 8.00916H16.6688C16.513 8.00916 16.3664 8.10996 16.3114 8.25658L11.0881 22.5702L13.2966 23.844L18.9781 8.25658C19.0239 8.12829 18.9322 8 18.8039 8V8.00916Z" fill="white"/>
</svg>
