<svg width="32" height="32" viewBox="0 0 32 32" fill="none" xmlns="http://www.w3.org/2000/svg">
<path d="M13 1.73205C14.8564 0.660254 17.1436 0.660254 19 1.73205L26.8564 6.26795C28.7128 7.33975 29.8564 9.32051 29.8564 11.4641V20.5359C29.8564 22.6795 28.7128 24.6603 26.8564 25.732L19 30.2679C17.1436 31.3397 14.8564 31.3397 13 30.268L5.14359 25.7321C3.28719 24.6603 2.14359 22.6795 2.14359 20.5359V11.4641C2.14359 9.32051 3.28719 7.33975 5.14359 6.26795L13 1.73205Z" fill="url(#paint0_linear_1109_50408)"/>
<path d="M19.694 12.1343C19.1368 10.7413 17.8134 10.6716 16.2114 10.9502L15.6542 9L14.4701 9.34826L15.0274 11.2289C14.7488 11.2985 14.4005 11.4378 14.0522 11.5075L13.495 9.55721L12.3109 9.90547L12.8682 11.8557C12.5896 11.9254 12.3806 11.995 12.102 12.0647L10.5 12.6219L10.8483 13.8756C10.8483 13.8756 11.7537 13.597 11.6841 13.597C12.1716 13.4577 12.3806 13.6667 12.5199 13.9453L13.1468 16.1741C13.1468 16.1741 13.2164 16.1741 13.2861 16.1741L13.1468 16.2438L14.0522 19.3781C14.0522 19.5174 14.0522 19.796 13.704 19.9353L12.8682 20.2139L13.0075 21.6766L14.5398 21.2587C14.8184 21.1891 15.097 21.1194 15.3756 21.0498L15.9328 23L17.1169 22.6517L16.5597 20.7015C16.908 20.6318 17.1866 20.5622 17.5348 20.4229L18.092 22.3731L19.2761 22.0249L18.7189 20.0746C20.6692 19.3781 21.9229 18.4726 21.5746 16.5224C21.296 14.99 20.3905 14.5025 19.1368 14.5721C19.8333 13.8756 20.1119 13.1791 19.694 12.1343ZM19.2761 16.8706C19.694 18.3333 17.1169 18.8905 16.2811 19.1692L15.5149 16.5224C16.3507 16.3134 18.7886 15.3383 19.2761 16.8706ZM17.6045 13.3184C18.0224 14.6418 15.8632 15.1294 15.1667 15.3383L14.4701 12.9701C15.1667 12.7612 17.2562 11.9254 17.6045 13.3184Z" fill="white"/>
<defs>
<linearGradient id="paint0_linear_1109_50408" x1="16" y1="0" x2="16" y2="32" gradientUnits="userSpaceOnUse">
<stop stop-color="#63A840"/>
<stop offset="1" stop-color="#528D34"/>
</linearGradient>
</defs>
</svg>
