<svg width="32" height="32" viewBox="0 0 32 32" fill="none" xmlns="http://www.w3.org/2000/svg">
<path d="M13 1.73205C14.8564 0.660254 17.1436 0.660254 19 1.73205L26.8564 6.26795C28.7128 7.33975 29.8564 9.32051 29.8564 11.4641V20.5359C29.8564 22.6795 28.7128 24.6603 26.8564 25.732L19 30.2679C17.1436 31.3397 14.8564 31.3397 13 30.268L5.14359 25.7321C3.28719 24.6603 2.14359 22.6795 2.14359 20.5359V11.4641C2.14359 9.32051 3.28719 7.33975 5.14359 6.26795L13 1.73205Z" fill="url(#paint0_linear_1109_52085)"/>
<g clip-path="url(#clip0_1109_52085)">
<path d="M16 11.89L13.0869 14.8031L11.392 13.108L16 8.5L20.6095 13.1094L18.9145 14.8044L16 11.89Z" fill="white"/>
<path d="M10.1951 14.3047L8.5 16L10.1949 17.6947L11.89 15.9996L10.1951 14.3047Z" fill="white"/>
<path d="M16 20.11L13.0869 17.1971L11.3896 18.8896L16 23.5L20.6095 18.8907L20.6103 18.8898L18.9144 17.1957L16 20.11Z" fill="white"/>
<path d="M21.8051 14.3057L20.11 16.0007L21.805 17.6957L23.5 16.0006L21.8051 14.3057Z" fill="white"/>
<path d="M17.7196 15.9987H17.719L17.7206 15.9995L17.7197 16.0005L15.9997 17.7204L14.2813 16.0017L14.2789 15.9993L14.2813 15.9969L15.9997 14.2787L17.7196 15.9987Z" fill="white"/>
</g>
<defs>
<linearGradient id="paint0_linear_1109_52085" x1="16" y1="0" x2="16" y2="32" gradientUnits="userSpaceOnUse">
<stop stop-color="#F4BA45"/>
<stop offset="1" stop-color="#F19C3B"/>
</linearGradient>
<clipPath id="clip0_1109_52085">
<rect width="16" height="16" fill="white" transform="translate(8 8)"/>
</clipPath>
</defs>
</svg>
