<svg width="32" height="32" viewBox="0 0 32 32" fill="none" xmlns="http://www.w3.org/2000/svg">
<path d="M13 1.73205C14.8564 0.660254 17.1436 0.660254 19 1.73205L26.8564 6.26795C28.7128 7.33975 29.8564 9.32051 29.8564 11.4641V20.5359C29.8564 22.6795 28.7128 24.6603 26.8564 25.732L19 30.2679C17.1436 31.3397 14.8564 31.3397 13 30.268L5.14359 25.7321C3.28719 24.6603 2.14359 22.6795 2.14359 20.5359V11.4641C2.14359 9.32051 3.28719 7.33975 5.14359 6.26795L13 1.73205Z" fill="#EAB300"/>
<path d="M20.6868 12.9245C20.5187 11.1772 19.0102 10.5917 17.104 10.4247V8H15.6289V10.36C15.2416 10.36 14.8449 10.3673 14.4514 10.3756V8H12.9763L12.9752 10.4226C12.6558 10.4289 12.3416 10.4351 12.0357 10.4351V10.4278L10.001 10.4268V12.0029C10.001 12.0029 11.0909 11.982 11.0721 12.0018C11.6703 12.0018 11.8645 12.3484 11.9208 12.6479V15.4097C11.9626 15.4097 12.0158 15.4118 12.0764 15.4202H11.9208L11.9198 19.2895C11.8937 19.4773 11.783 19.7769 11.3655 19.7779C11.3843 19.7946 10.2933 19.7779 10.2933 19.7779L10 21.5398H11.9208C12.2779 21.5398 12.6297 21.5461 12.9742 21.5482L12.9752 24H14.4493V21.5743C14.8533 21.5826 15.2448 21.5858 15.6279 21.5858L15.6268 24H17.1019V21.5534C19.5823 21.4114 21.3205 20.7862 21.5355 18.4565C21.7099 16.5809 20.8277 15.7427 19.4195 15.4045C20.2765 14.9703 20.8121 14.2031 20.6868 12.9245ZM18.6219 18.1664C18.6219 19.9982 15.4849 19.7905 14.4837 19.7905V16.5412C15.4849 16.5433 18.6219 16.2562 18.6219 18.1664ZM17.935 13.5831C17.935 15.25 15.3168 15.0549 14.4837 15.0559V12.1104C15.3178 12.1104 17.936 11.8453 17.935 13.5831Z" fill="white"/>
<path d="M11.923 15.345H12.1422V15.5068H11.923V15.345Z" fill="white"/>
</svg>
