<svg width="32" height="32" viewBox="0 0 32 32" fill="none" xmlns="http://www.w3.org/2000/svg">
<path d="M13 1.73207C14.8564 0.660274 17.1436 0.660273 19 1.73207L26.8564 6.26797C28.7128 7.33977 29.8564 9.32053 29.8564 11.4641V20.5359C29.8564 22.6795 28.7128 24.6603 26.8564 25.7321L19 30.268C17.1436 31.3398 14.8564 31.3398 13 30.268L5.14355 25.7321C3.28715 24.6603 2.14355 22.6795 2.14355 20.5359V11.4641C2.14355 9.32053 3.28715 7.33977 5.14355 6.26797L13 1.73207Z" fill="url(#paint0_linear_1109_51458)"/>
<path d="M16.0002 11.9847C17.4278 11.9847 18.585 11.3165 18.585 10.4923C18.585 9.66814 17.4278 9 16.0002 9C14.5726 9 13.4153 9.66814 13.4153 10.4923C13.4153 11.3165 14.5726 11.9847 16.0002 11.9847Z" fill="white"/>
<path d="M22.1973 16.7037C22.9163 17.1158 22.9205 18.4447 22.2068 19.672C21.493 20.8992 20.3315 21.56 19.6124 21.1479C18.8934 20.7358 18.8892 19.4068 19.603 18.1796C20.3168 16.9524 21.4783 16.2916 22.1973 16.7037Z" fill="white"/>
<path d="M18.585 21.7368C18.585 22.561 17.4278 23.2292 16.0002 23.2292C14.5726 23.2292 13.4153 22.561 13.4153 21.7368C13.4153 20.9127 14.5726 20.2445 16.0002 20.2445C17.4278 20.2445 18.585 20.9127 18.585 21.7368Z" fill="white"/>
<path d="M12.3876 11.0816C13.1071 11.494 13.1117 12.8232 12.3979 14.0504C11.6841 15.2776 10.5222 15.9382 9.80269 15.5258C9.08318 15.1135 9.07854 13.7843 9.79234 12.557C10.5061 11.3298 11.6681 10.6692 12.3876 11.0816Z" fill="white"/>
<path d="M12.3879 21.1476C13.1074 20.7352 13.1121 19.406 12.3983 18.1788C11.6845 16.9516 10.5226 16.291 9.80305 16.7034C9.08354 17.1158 9.07891 18.4449 9.7927 19.6722C10.5065 20.8994 11.6684 21.56 12.3879 21.1476Z" fill="white"/>
<path d="M22.2074 12.5579C22.9212 13.7851 22.917 15.114 22.198 15.5261C21.4789 15.9382 20.3174 15.2774 19.6036 14.0502C18.8898 12.823 18.894 11.494 19.6131 11.082C20.3321 10.6699 21.4936 11.3306 22.2074 12.5579Z" fill="white"/>
<defs>
<linearGradient id="paint0_linear_1109_51458" x1="16" y1="0.928223" x2="16" y2="31.0718" gradientUnits="userSpaceOnUse">
<stop stop-color="#D9534A"/>
<stop offset="1" stop-color="#C6342A"/>
</linearGradient>
</defs>
</svg>
