<svg width="32" height="32" viewBox="0 0 32 32" fill="none" xmlns="http://www.w3.org/2000/svg">
<path d="M13 1.73205C14.8564 0.660254 17.1436 0.660254 19 1.73205L26.8564 6.26795C28.7128 7.33975 29.8564 9.32051 29.8564 11.4641V20.5359C29.8564 22.6795 28.7128 24.6603 26.8564 25.732L19 30.2679C17.1436 31.3397 14.8564 31.3397 13 30.268L5.14359 25.7321C3.28719 24.6603 2.14359 22.6795 2.14359 20.5359V11.4641C2.14359 9.32051 3.28719 7.33975 5.14359 6.26795L13 1.73205Z" fill="url(#paint0_linear_1109_51401)"/>
<path d="M14.9406 20.5368L16.0554 16.7777L17.7923 16.2851L18.1553 15.0407L16.4442 15.5592L18.259 9.38906V9.29055C18.2577 9.25105 18.2485 9.2122 18.2322 9.17622C18.2158 9.14025 18.1925 9.10785 18.1636 9.08088C18.1347 9.05391 18.1008 9.03291 18.0638 9.01906C18.0268 9.00521 17.9874 8.9988 17.9479 9.00019H15.6406C15.5532 8.99749 15.4675 9.02411 15.397 9.07579C15.3265 9.12747 15.2754 9.20124 15.2517 9.28536L13.0999 16.5962L11.3889 17.1147L11 18.3073L12.711 17.7888L11.1815 22.9997H20.3071C20.3946 23.0033 20.4808 22.977 20.5515 22.9252C20.6221 22.8734 20.6731 22.7991 20.6959 22.7145L21.2144 20.9257V20.8272C21.2131 20.7877 21.204 20.7488 21.1876 20.7128C21.1713 20.6769 21.148 20.6445 21.1191 20.6175C21.0902 20.5905 21.0563 20.5695 21.0192 20.5557C20.9822 20.5418 20.9428 20.5354 20.9033 20.5368H14.9406Z" fill="white"/>
<defs>
<linearGradient id="paint0_linear_1109_51401" x1="16" y1="0" x2="16" y2="32" gradientUnits="userSpaceOnUse">
<stop stop-color="#1EA3A3"/>
<stop offset="1" stop-color="#1A8D8D"/>
</linearGradient>
</defs>
</svg>
