<svg width="32" height="32" viewBox="0 0 32 32" fill="none" xmlns="http://www.w3.org/2000/svg">
<path d="M13 1.73205C14.8564 0.660254 17.1436 0.660254 19 1.73205L26.8564 6.26795C28.7128 7.33975 29.8564 9.32051 29.8564 11.4641V20.5359C29.8564 22.6795 28.7128 24.6603 26.8564 25.732L19 30.2679C17.1436 31.3397 14.8564 31.3397 13 30.268L5.14359 25.7321C3.28719 24.6603 2.14359 22.6795 2.14359 20.5359V11.4641C2.14359 9.32051 3.28719 7.33975 5.14359 6.26795L13 1.73205Z" fill="url(#paint0_linear_1109_51800)"/>
<path d="M19.8577 13.5339C19.5836 13.3773 19.2311 13.3773 18.9178 13.5339L16.7245 14.8264L15.2363 15.6488L13.0822 16.9413C12.8081 17.0979 12.4556 17.0979 12.1423 16.9413L10.4582 15.923C10.1841 15.7663 9.98825 15.453 9.98825 15.1005V13.1423C9.98825 12.829 10.1449 12.5157 10.4582 12.3198L12.1423 11.3407C12.4164 11.1841 12.7689 11.1841 13.0822 11.3407L14.7663 12.359C15.0405 12.5157 15.2363 12.829 15.2363 13.1815V14.4739L16.7245 13.6123V12.2807C16.7245 11.9674 16.5679 11.654 16.2546 11.4582L13.1214 9.61749C12.8473 9.46084 12.4948 9.46084 12.1815 9.61749L8.96997 11.4974C8.65666 11.654 8.5 11.9674 8.5 12.2807V15.9621C8.5 16.2755 8.65666 16.5888 8.96997 16.7846L12.1423 18.6253C12.4164 18.782 12.7689 18.782 13.0822 18.6253L15.2363 17.3721L16.7245 16.5104L18.8786 15.2572C19.1527 15.1005 19.5052 15.1005 19.8185 15.2572L21.5026 16.2363C21.7768 16.393 21.9726 16.7063 21.9726 17.0587V19.017C21.9726 19.3303 21.8159 19.6436 21.5026 19.8394L19.8577 20.8185C19.5836 20.9752 19.2311 20.9752 18.9178 20.8185L17.2337 19.8394C16.9595 19.6828 16.7637 19.3695 16.7637 19.017V17.7637L15.2755 18.6253V19.9178C15.2755 20.2311 15.4321 20.5444 15.7454 20.7402L18.9178 22.5809C19.1919 22.7376 19.5444 22.7376 19.8577 22.5809L23.03 20.7402C23.3042 20.5836 23.5 20.2702 23.5 19.9178V16.1971C23.5 15.8838 23.3433 15.5705 23.03 15.3747L19.8577 13.5339Z" fill="white"/>
<defs>
<linearGradient id="paint0_linear_1109_51800" x1="16" y1="0" x2="16" y2="32" gradientUnits="userSpaceOnUse">
<stop stop-color="#A64ED4"/>
<stop offset="1" stop-color="#8E2FC1"/>
</linearGradient>
</defs>
</svg>
