<svg width="32" height="32" viewBox="0 0 32 32" fill="none" xmlns="http://www.w3.org/2000/svg">
<path d="M13 1.73205C14.8564 0.660254 17.1436 0.660254 19 1.73205L26.8564 6.26795C28.7128 7.33975 29.8564 9.32051 29.8564 11.4641V20.5359C29.8564 22.6795 28.7128 24.6603 26.8564 25.732L19 30.2679C17.1436 31.3397 14.8564 31.3397 13 30.268L5.14359 25.7321C3.28719 24.6603 2.14359 22.6795 2.14359 20.5359V11.4641C2.14359 9.32051 3.28719 7.33975 5.14359 6.26795L13 1.73205Z" fill="black"/>
<path d="M16.0716 23.6514V20.9271C15.7969 20.9271 15.5162 20.9032 15.2415 20.8615L14.8114 23.55C15.2295 23.6216 15.6536 23.6514 16.0716 23.6514ZM17.3259 23.556C17.744 23.4904 18.1561 23.395 18.5562 23.2639L17.7141 20.6707C17.4513 20.7542 17.1766 20.8198 16.9018 20.8615L17.3259 23.556ZM13.5871 23.2639L14.4292 20.6767C14.1664 20.5932 13.9096 20.4859 13.6587 20.3608L12.4164 22.787C12.7927 22.9718 13.1869 23.1327 13.5871 23.2639ZM19.7209 22.787C20.0971 22.5962 20.4555 22.3757 20.7959 22.1312L19.1833 19.9315C18.9624 20.0925 18.7235 20.2415 18.4726 20.3608L19.7209 22.787ZM11.3414 22.1253L12.954 19.9256C12.733 19.7646 12.518 19.5858 12.3209 19.3891L10.3858 21.3146C10.6844 21.6067 11.0069 21.8809 11.3414 22.1253ZM21.7456 21.3265L21.7635 21.3086C22.0621 21.0165 22.3369 20.6946 22.5817 20.3608L20.3719 18.7572C20.2106 18.9777 20.0255 19.1924 19.8344 19.3831L19.8045 19.4129L20.7362 20.2892L21.7456 21.3265ZM9.56753 20.3548L11.7774 18.7512C11.6161 18.5307 11.4668 18.2922 11.3414 18.0478L8.90458 19.2818C9.0957 19.6573 9.31668 20.015 9.56753 20.3548ZM23.2387 19.2877C23.4298 18.9181 23.5911 18.5247 23.7225 18.1253L21.1185 17.2907C21.0348 17.553 20.9273 17.8093 20.8019 18.0538L23.2387 19.2877ZM8.4208 18.1253L11.0248 17.2848C10.9412 17.0225 10.8755 16.7542 10.8337 16.48L8.12814 16.9032C8.19384 17.3146 8.29538 17.7259 8.4208 18.1253ZM24.0151 16.9092C24.0808 16.4979 24.1167 16.0746 24.1167 15.6573H21.3812C21.3812 15.9315 21.3574 16.2117 21.3155 16.4859L24.0151 16.9092ZM10.768 15.6514C10.768 15.3771 10.7919 15.097 10.8337 14.8228L8.12814 14.3995C8.06245 14.8108 8.03258 15.2341 8.02661 15.6514H10.768ZM21.3155 14.8287L24.0211 14.4055C23.9554 13.9941 23.8599 13.5828 23.7285 13.1834L21.1244 14.018C21.208 14.2862 21.2737 14.5545 21.3155 14.8287ZM11.0248 14.018C11.1085 13.7557 11.216 13.4994 11.3414 13.2549L8.90458 12.021C8.71346 12.3906 8.5522 12.784 8.4208 13.1834L11.0248 14.018ZM20.8079 13.2609L23.2507 12.0269C23.0595 11.6514 22.8386 11.2937 22.5877 10.9539L20.3719 12.5575C20.5331 12.778 20.6825 13.0165 20.8079 13.2609ZM11.7774 12.5515C11.9386 12.3309 12.1238 12.1163 12.3209 11.9196L12.3269 11.9137L10.3917 9.98818L10.3858 9.99414C10.0871 10.2922 9.81241 10.6081 9.56753 10.9479L11.7774 12.5515ZM19.8344 11.9315L20.4197 11.3414L21.7635 10.0061L21.7575 10.0001C21.4589 9.708 21.1423 9.43378 20.8079 9.18937L19.1953 11.3891C19.4163 11.55 19.6313 11.7289 19.8224 11.9256L19.8344 11.9315ZM12.9599 11.3771C13.1809 11.2162 13.4198 11.0731 13.6707 10.9479L12.4284 8.52171C12.0521 8.71247 11.6938 8.93304 11.3533 9.17745L12.9599 11.3771ZM18.4905 10.9539L19.7388 8.52767C19.3625 8.33691 18.9743 8.17596 18.5741 8.04481L17.726 10.632C17.9829 10.7214 18.2397 10.8287 18.4905 10.9539ZM14.4411 10.632C14.7039 10.5485 14.9787 10.483 15.2534 10.4412L14.8294 7.75271C14.4172 7.81828 13.9992 7.91366 13.599 8.04481L14.4411 10.632ZM16.9078 10.4412L17.3378 7.75271C16.9257 7.68713 16.5017 7.65137 16.0836 7.65137V10.3757C16.3583 10.3757 16.639 10.3995 16.9078 10.4412Z" fill="white"/>
<path d="M16.0717 21.0525V18.3163C15.8387 18.3163 15.6118 18.2865 15.3848 18.2269L14.6681 20.8677C15.128 20.9869 15.5998 21.0525 16.0717 21.0525ZM17.4752 20.8677C17.9351 20.7485 18.3711 20.5696 18.7832 20.3312L17.3976 17.9646C17.2005 18.0778 16.9855 18.1673 16.7645 18.2269L17.4752 20.8677ZM13.3661 20.3312L14.7517 17.9646C14.5546 17.8513 14.3695 17.7082 14.2022 17.5473L14.1784 17.5234L13.3064 18.4355L12.2313 19.4668L12.2492 19.4847C12.5837 19.8126 12.96 20.0987 13.3661 20.3312ZM19.9001 19.4847C20.2345 19.1509 20.5272 18.7813 20.7601 18.3759L18.3651 17.0048C18.2516 17.2015 18.1083 17.3804 17.9411 17.5473L19.9001 19.4847ZM11.3832 18.3699L13.7782 17.0048C13.6647 16.8081 13.5751 16.5994 13.5154 16.3789L10.8457 17.0823C10.9651 17.5294 11.1503 17.9646 11.3832 18.3699ZM21.3036 17.0883C21.4231 16.6352 21.4888 16.1702 21.4888 15.7053H18.7235C18.7235 15.9318 18.6936 16.1643 18.6339 16.3848L21.3036 17.0883ZM13.4318 15.6993C13.4318 15.4728 13.4617 15.2403 13.5214 15.0197L10.8457 14.3163C10.7262 14.7693 10.6605 15.2343 10.6605 15.6993H13.4318ZM18.6279 15.0257L21.3036 14.3222C21.1842 13.8692 20.999 13.434 20.7661 13.0287L18.3711 14.3938C18.4786 14.5965 18.5682 14.8051 18.6279 15.0257ZM13.7842 14.3938C13.8976 14.203 14.035 14.0182 14.2022 13.8573L14.2082 13.8513L13.2168 12.8737L12.2671 11.902L12.2492 11.9199C11.9148 12.2477 11.6281 12.6233 11.3892 13.0227L13.7842 14.3938ZM17.9411 13.8573L18.9206 12.8856L19.924 11.9437L19.9001 11.9199C19.5656 11.586 19.1893 11.3059 18.7832 11.0674L17.3976 13.434C17.5947 13.5473 17.7738 13.6844 17.9411 13.8453V13.8573ZM14.7517 13.434C14.9488 13.3208 15.1638 13.2313 15.3848 13.1717L14.6801 10.5309C14.2202 10.6501 13.7842 10.829 13.3721 11.0674L14.7517 13.434ZM16.7585 13.1777L17.4752 10.5368C17.0213 10.4176 16.5495 10.3521 16.0776 10.3521V13.0883C16.3046 13.0883 16.5375 13.1181 16.7585 13.1777Z" fill="white"/>
</svg>
