<svg width="32" height="32" viewBox="0 0 32 32" fill="none" xmlns="http://www.w3.org/2000/svg">
<path d="M13 1.73205C14.8564 0.660254 17.1436 0.660254 19 1.73205L26.8564 6.26795C28.7128 7.33975 29.8564 9.32051 29.8564 11.4641V20.5359C29.8564 22.6795 28.7128 24.6603 26.8564 25.732L19 30.2679C17.1436 31.3397 14.8564 31.3397 13 30.268L5.14359 25.7321C3.28719 24.6603 2.14359 22.6795 2.14359 20.5359V11.4641C2.14359 9.32051 3.28719 7.33975 5.14359 6.26795L13 1.73205Z" fill="#FF0420"/>
<path d="M11.57 20.3122C10.6417 20.3122 9.88154 20.0942 9.28964 19.658C8.70397 19.2156 8.41113 18.5801 8.41113 17.7639C8.41113 17.5895 8.42982 17.3839 8.46721 17.1347C8.5669 16.5739 8.7102 15.901 8.89711 15.1097C9.42671 12.9664 10.7974 11.8948 13.003 11.8948C13.6012 11.8948 14.1432 11.9945 14.6167 12.2001C15.0903 12.3932 15.4641 12.6923 15.7382 13.091C16.0124 13.4836 16.1495 13.9509 16.1495 14.4929C16.1495 14.6549 16.1308 14.8605 16.0934 15.1097C15.975 15.8013 15.8379 16.4804 15.6697 17.1347C15.3956 18.2001 14.9283 19.0038 14.2554 19.5334C13.5887 20.0568 12.6915 20.3122 11.57 20.3122ZM11.7382 18.63C12.1744 18.63 12.542 18.4991 12.8473 18.2437C13.1588 17.9882 13.3831 17.5957 13.5139 17.0599C13.6946 16.3247 13.8317 15.6892 13.9252 15.1409C13.9563 14.9789 13.975 14.8107 13.975 14.6362C13.975 13.9259 13.6074 13.5708 12.866 13.5708C12.4298 13.5708 12.056 13.7016 11.7445 13.9571C11.4392 14.2125 11.2211 14.6051 11.0903 15.1409C10.947 15.6642 10.8099 16.2998 10.6666 17.0599C10.6354 17.2156 10.6167 17.3776 10.6167 17.5521C10.6105 18.2748 10.9906 18.63 11.7382 18.63Z" fill="white"/>
<path d="M16.6915 20.2001C16.6043 20.2001 16.542 20.1752 16.4921 20.1191C16.4547 20.0568 16.4423 19.9883 16.4547 19.9073L18.0685 12.306C18.0809 12.2188 18.1245 12.1503 18.1993 12.0942C18.2678 12.0381 18.3426 12.0132 18.4236 12.0132H21.5326C22.3987 12.0132 23.0903 12.1939 23.6136 12.549C24.1432 12.9104 24.4111 13.4275 24.4111 14.1066C24.4111 14.2998 24.3862 14.5054 24.3426 14.7172C24.1495 15.6144 23.7569 16.2749 23.1588 16.7048C22.5731 17.1347 21.7694 17.3465 20.7476 17.3465H19.1713L18.6354 19.9073C18.6167 19.9945 18.5794 20.063 18.5046 20.1191C18.4361 20.1752 18.3613 20.2001 18.2803 20.2001H16.6915ZM20.8286 15.7328C21.1588 15.7328 21.4392 15.6456 21.6822 15.4649C21.9314 15.2842 22.0934 15.0288 22.1744 14.6923C22.1993 14.5615 22.2118 14.4431 22.2118 14.3434C22.2118 14.1191 22.1432 13.9446 22.0124 13.8263C21.8815 13.7017 21.651 13.6394 21.3333 13.6394H19.9314L19.489 15.7328H20.8286Z" fill="white"/>
</svg>
