<svg width="32" height="32" viewBox="0 0 32 32" fill="none" xmlns="http://www.w3.org/2000/svg">
<path d="M13 1.73205C14.8564 0.660254 17.1436 0.660254 19 1.73205L26.8564 6.26795C28.7128 7.33975 29.8564 9.32051 29.8564 11.4641V20.5359C29.8564 22.6795 28.7128 24.6603 26.8564 25.732L19 30.2679C17.1436 31.3397 14.8564 31.3397 13 30.268L5.14359 25.7321C3.28719 24.6603 2.14359 22.6795 2.14359 20.5359V11.4641C2.14359 9.32051 3.28719 7.33975 5.14359 6.26795L13 1.73205Z" fill="url(#paint0_linear_1109_52313)"/>
<path d="M22.9279 19.7239L20.6168 22.1654C20.5665 22.2184 20.5057 22.2607 20.4382 22.2896C20.3707 22.3185 20.2978 22.3334 20.2242 22.3333H9.2683C9.21603 22.3333 9.16489 22.3183 9.12118 22.29C9.07746 22.2618 9.04307 22.2216 9.02224 22.1744C9.0014 22.1272 8.99502 22.075 9.00389 22.0242C9.01275 21.9735 9.03647 21.9264 9.07214 21.8887L11.385 19.4473C11.4351 19.3944 11.4957 19.3522 11.563 19.3233C11.6304 19.2944 11.703 19.2795 11.7764 19.2794H22.7317C22.784 19.2794 22.8351 19.2944 22.8788 19.3226C22.9225 19.3509 22.9569 19.3911 22.9778 19.4383C22.9986 19.4855 23.005 19.5377 22.9961 19.5885C22.9872 19.6392 22.9635 19.6863 22.9279 19.7239ZM20.6168 14.8076C20.5665 14.7546 20.5057 14.7123 20.4382 14.6834C20.3707 14.6545 20.2978 14.6396 20.2242 14.6397H9.2683C9.21603 14.6397 9.16489 14.6547 9.12118 14.683C9.07746 14.7112 9.04307 14.7514 9.02224 14.7986C9.0014 14.8458 8.99502 14.898 9.00389 14.9488C9.01275 14.9995 9.03647 15.0466 9.07214 15.0843L11.385 17.5257C11.4351 17.5786 11.4957 17.6208 11.563 17.6497C11.6304 17.6785 11.703 17.6935 11.7764 17.6936H22.7317C22.784 17.6936 22.8351 17.6786 22.8788 17.6504C22.9225 17.6221 22.9569 17.5819 22.9778 17.5347C22.9986 17.4875 23.005 17.4353 22.9961 17.3845C22.9872 17.3338 22.9635 17.2867 22.9279 17.2491L20.6168 14.8076ZM9.2683 13.054H20.2242C20.2978 13.054 20.3707 13.0391 20.4382 13.0102C20.5057 12.9813 20.5665 12.939 20.6168 12.886L22.9279 10.4446C22.9635 10.4069 22.9872 10.3598 22.9961 10.3091C23.005 10.2584 22.9986 10.2062 22.9778 10.1589C22.9569 10.1117 22.9225 10.0715 22.8788 10.0433C22.8351 10.015 22.784 10 22.7317 10H11.7764C11.703 10.0001 11.6304 10.0151 11.563 10.044C11.4957 10.0729 11.4351 10.1151 11.385 10.168L9.07273 12.6094C9.0371 12.647 9.01339 12.694 9.00451 12.7447C8.99562 12.7954 9.00195 12.8476 9.02271 12.8948C9.04348 12.942 9.07777 12.9822 9.1214 13.0104C9.16502 13.0387 9.21608 13.0538 9.2683 13.054Z" fill="white"/>
<defs>
<linearGradient id="paint0_linear_1109_52313" x1="16" y1="0" x2="16" y2="32" gradientUnits="userSpaceOnUse">
<stop stop-color="#E3638E"/>
<stop offset="1" stop-color="#DC386E"/>
</linearGradient>
</defs>
</svg>
