<svg width="32" height="32" viewBox="0 0 32 32" fill="none" xmlns="http://www.w3.org/2000/svg">
<path d="M13 1.73207C14.8564 0.660274 17.1436 0.660273 19 1.73207L26.8564 6.26797C28.7128 7.33977 29.8564 9.32053 29.8564 11.4641V20.5359C29.8564 22.6795 28.7128 24.6603 26.8564 25.7321L19 30.268C17.1436 31.3398 14.8564 31.3398 13 30.268L5.14355 25.7321C3.28715 24.6603 2.14355 22.6795 2.14355 20.5359V11.4641C2.14355 9.32053 3.28715 7.33977 5.14355 6.26797L13 1.73207Z" fill="#5546FF"/>
<path d="M22 24L18.7238 18.8571H23.4286V16.9143H8V18.8571H12.7048L9.42857 24H11.8667L15.7143 17.9619L19.5619 24H22ZM23.4286 15.0286V13.0857H18.819L22.0571 8H19.6L15.7143 14.1333L11.8286 8H9.37143L12.6095 13.0857H8V15.0476L23.4286 15.0286Z" fill="white"/>
</svg>
