<svg width="32" height="32" viewBox="0 0 32 32" fill="none" xmlns="http://www.w3.org/2000/svg">
<path d="M13 1.73207C14.8564 0.660273 17.1436 0.660273 19 1.73207L26.8564 6.26797C28.7128 7.33977 29.8564 9.32053 29.8564 11.4641V20.5359C29.8564 22.6795 28.7128 24.6603 26.8564 25.7321L19 30.268C17.1436 31.3398 14.8564 31.3398 13 30.268L5.14355 25.7321C3.28715 24.6603 2.14355 22.6795 2.14355 20.5359V11.4641C2.14355 9.32053 3.28715 7.33977 5.14355 6.26797L13 1.73207Z" fill="url(#paint0_linear_1109_51572)"/>
<path d="M23.0623 13.0189C22.3592 12.3697 21.3866 11.3783 20.5944 10.6752L20.5475 10.6424C20.4695 10.5797 20.3816 10.5306 20.2874 10.497C18.3772 10.1408 9.48749 8.47911 9.31406 8.5002C9.26546 8.50701 9.21901 8.52462 9.17812 8.55176L9.13359 8.58692C9.07876 8.6426 9.03711 8.70988 9.01172 8.78379L9 8.81426V8.98066V9.00644C10.0008 11.7931 13.9523 20.9219 14.7304 23.0641C14.7773 23.2094 14.8663 23.4859 15.0327 23.5H15.0702C15.1593 23.5 15.539 22.9984 15.539 22.9984C15.539 22.9984 22.3264 14.7673 23.0131 13.8908C23.102 13.7828 23.1805 13.6666 23.2475 13.5439C23.2646 13.4478 23.2565 13.349 23.2241 13.257C23.1916 13.165 23.1359 13.083 23.0623 13.0189ZM17.2804 13.9775L20.1772 11.5752L21.8764 13.1408L17.2804 13.9775ZM16.1554 13.8204L11.1679 9.733L19.2374 11.2213L16.1554 13.8204ZM16.6054 14.8915L21.71 14.0689L15.8741 21.1L16.6054 14.8915ZM10.4906 10.1408L15.7382 14.5939L14.9788 21.1047L10.4906 10.1408Z" fill="white"/>
<defs>
<linearGradient id="paint0_linear_1109_51572" x1="16" y1="0.928223" x2="16" y2="31.0718" gradientUnits="userSpaceOnUse">
<stop stop-color="#D9534A"/>
<stop offset="1" stop-color="#C6342A"/>
</linearGradient>
</defs>
</svg>
