<svg width="32" height="32" viewBox="0 0 32 32" fill="none" xmlns="http://www.w3.org/2000/svg">
<path d="M13 1.73205C14.8564 0.660254 17.1436 0.660254 19 1.73205L26.8564 6.26795C28.7128 7.33975 29.8564 9.32051 29.8564 11.4641V20.5359C29.8564 22.6795 28.7128 24.6603 26.8564 25.732L19 30.2679C17.1436 31.3397 14.8564 31.3397 13 30.268L5.14359 25.7321C3.28719 24.6603 2.14359 22.6795 2.14359 20.5359V11.4641C2.14359 9.32051 3.28719 7.33975 5.14359 6.26795L13 1.73205Z" fill="url(#paint0_linear_1109_52028)"/>
<g clip-path="url(#clip0_1109_52028)">
<path d="M10.1825 13.838C8.97735 17.0377 10.6395 20.6529 13.8807 21.8164C14.0054 21.8996 14.1301 22.0657 14.1301 22.1904V22.7722C14.1301 22.8553 14.1301 22.8968 14.0885 22.9383C14.047 23.1046 13.8807 23.1877 13.7145 23.1046C11.3875 22.3566 9.60066 20.5698 8.85269 18.2428C7.60607 14.2952 9.76691 10.0982 13.7145 8.85155C13.7561 8.81006 13.8392 8.81006 13.8807 8.81006C14.047 8.85155 14.1301 8.97621 14.1301 9.14246V9.72418C14.1301 9.93202 14.047 10.0567 13.8807 10.1398C12.1771 10.7631 10.8058 12.0928 10.1825 13.838Z" fill="white"/>
<path d="M17.9115 9.01779C17.953 8.85155 18.1193 8.76847 18.2855 8.85155C20.5709 9.59952 22.3993 11.3864 23.1473 13.7549C24.3939 17.7025 22.2331 21.8996 18.2855 23.1462C18.2439 23.1877 18.1608 23.1877 18.1193 23.1877C17.953 23.1462 17.8699 23.0215 17.8699 22.8553V22.2735C17.8699 22.0657 17.953 21.941 18.1193 21.858C19.8229 21.2347 21.1942 19.905 21.8175 18.1597C23.0227 14.96 21.3605 11.3448 18.1193 10.1813C17.9946 10.0982 17.8699 9.93202 17.8699 9.76577V9.18404C17.8699 9.10087 17.8699 9.05938 17.9115 9.01779Z" fill="white"/>
<path d="M16.1236 15.2922C17.8689 15.4999 18.7415 15.9986 18.7415 17.4529C18.7415 18.5749 17.9105 19.4475 16.6639 19.6554V20.6527C16.6223 20.8604 16.4976 20.9851 16.3314 20.9851H15.7081C15.5003 20.9435 15.3757 20.8188 15.3757 20.6527V19.6554C14.0044 19.4475 13.3395 18.6996 13.1734 17.6608V17.6192C13.1734 17.4529 13.298 17.3283 13.4642 17.3283H14.1707C14.2953 17.3283 14.42 17.4115 14.4615 17.5776C14.5861 18.2009 14.9601 18.6581 16.0406 18.6581C16.83 18.6581 17.4118 18.201 17.4118 17.5361C17.4118 16.8712 17.0378 16.6219 15.8743 16.4142C14.1291 16.2063 13.298 15.6662 13.298 14.2949C13.298 13.256 14.0875 12.425 15.3341 12.2587V11.303C15.3757 11.0952 15.5003 10.9705 15.6666 10.9705H16.2899C16.4976 11.0121 16.6223 11.1368 16.6223 11.303V12.3003C17.578 12.3834 18.3259 13.0898 18.4922 14.004V14.0456C18.4922 14.2117 18.3675 14.3364 18.2013 14.3364H17.5365C17.4118 14.3364 17.2872 14.2533 17.2456 14.1287C17.0378 13.5053 16.6223 13.256 15.8743 13.256C15.0433 13.256 14.6277 13.6299 14.6277 14.2117C14.6277 14.7935 14.877 15.1259 16.1236 15.2922Z" fill="white"/>
</g>
<defs>
<linearGradient id="paint0_linear_1109_52028" x1="16" y1="0" x2="16" y2="32" gradientUnits="userSpaceOnUse">
<stop stop-color="#4D83EF"/>
<stop offset="1" stop-color="#145CEB"/>
</linearGradient>
<clipPath id="clip0_1109_52028">
<rect width="16" height="16" fill="white" transform="translate(8 8)"/>
</clipPath>
</defs>
</svg>
