<svg width="32" height="32" viewBox="0 0 32 32" fill="none" xmlns="http://www.w3.org/2000/svg">
<path d="M13 1.73205C14.8564 0.660254 17.1436 0.660254 19 1.73205L26.8564 6.26795C28.7128 7.33975 29.8564 9.32051 29.8564 11.4641V20.5359C29.8564 22.6795 28.7128 24.6603 26.8564 25.732L19 30.2679C17.1436 31.3397 14.8564 31.3397 13 30.268L5.14359 25.7321C3.28719 24.6603 2.14359 22.6795 2.14359 20.5359V11.4641C2.14359 9.32051 3.28719 7.33975 5.14359 6.26795L13 1.73205Z" fill="url(#paint0_linear_1109_50750)"/>
<path d="M14.9483 22.5223L8.5329 9.45524C8.42866 9.24675 8.5854 9 8.8164 9H11.0394C11.1586 9 11.2704 9.0675 11.3229 9.17175L16.008 18.6516C16.4258 19.5021 17.634 19.5021 18.0517 18.6516L22.7219 9.17925C22.7744 9.075 22.8862 9.0075 23.0054 9.0075H23.2814C23.4456 9.0075 23.5499 9.17925 23.4756 9.32099L16.9928 22.5223C16.575 23.372 15.366 23.372 14.9483 22.5223Z" fill="white"/>
<defs>
<linearGradient id="paint0_linear_1109_50750" x1="16" y1="0" x2="16" y2="32" gradientUnits="userSpaceOnUse">
<stop stop-color="#7878F8"/>
<stop offset="1" stop-color="#4747F5"/>
</linearGradient>
</defs>
</svg>
