<svg width="32" height="32" viewBox="0 0 32 32" fill="none" xmlns="http://www.w3.org/2000/svg">
<path d="M13 1.73205C14.8564 0.660254 17.1436 0.660254 19 1.73205L26.8564 6.26795C28.7128 7.33975 29.8564 9.32051 29.8564 11.4641V20.5359C29.8564 22.6795 28.7128 24.6603 26.8564 25.732L19 30.2679C17.1436 31.3397 14.8564 31.3397 13 30.268L5.14359 25.7321C3.28719 24.6603 2.14359 22.6795 2.14359 20.5359V11.4641C2.14359 9.32051 3.28719 7.33975 5.14359 6.26795L13 1.73205Z" fill="#F0B90B"/>
<path d="M10.5314 16.0001L10.5398 19.0947L13.1693 20.642V22.4537L9.00094 20.009V15.0952L10.5314 16.0001ZM10.5314 12.9055V14.7088L9 13.8029V11.9996L10.5314 11.0938L12.0702 11.9996L10.5314 12.9055ZM14.2674 11.9996L15.7987 11.0938L17.3376 11.9996L15.7987 12.9055L14.2674 11.9996Z" fill="white"/>
<path d="M11.6379 18.4533V16.6415L13.1693 17.5474V19.3507L11.6379 18.4533ZM14.2674 21.2909L15.7988 22.1968L17.3376 21.2909V23.0942L15.7988 24.0001L14.2674 23.0942V21.2909ZM19.5338 11.9996L21.0652 11.0938L22.6041 11.9996V13.8029L21.0652 14.7088V12.9055L19.5338 11.9996ZM21.0652 19.0947L21.0736 16.0001L22.605 15.0942V20.0081L18.4367 22.4528V20.641L21.0652 19.0947Z" fill="white"/>
<path d="M19.967 18.4531L18.4357 19.3505V17.5472L19.967 16.6414V18.4531Z" fill="white"/>
<path d="M19.9671 13.5468L19.9755 15.3586L17.3386 16.9059V20.008L15.8072 20.9054L14.2758 20.008V16.9059L11.6389 15.3586V13.5468L13.1768 12.641L15.7978 14.1958L18.4348 12.641L19.9737 13.5468H19.9671ZM11.6379 10.4532L15.7988 8L19.9671 10.4532L18.4357 11.359L15.7988 9.80424L13.1693 11.359L11.6379 10.4532Z" fill="white"/>
</svg>
