<svg width="32" height="32" viewBox="0 0 32 32" fill="none" xmlns="http://www.w3.org/2000/svg">
<path d="M13 1.73205C14.8564 0.660254 17.1436 0.660254 19 1.73205L26.8564 6.26795C28.7128 7.33975 29.8564 9.32051 29.8564 11.4641V20.5359C29.8564 22.6795 28.7128 24.6603 26.8564 25.732L19 30.2679C17.1436 31.3397 14.8564 31.3397 13 30.268L5.14359 25.7321C3.28719 24.6603 2.14359 22.6795 2.14359 20.5359V11.4641C2.14359 9.32051 3.28719 7.33975 5.14359 6.26795L13 1.73205Z" fill="#D7A3E5"/>
<path d="M21.3021 14.5301C21.5379 12.954 20.3379 12.1067 18.697 11.5416L19.2293 9.40652L17.9297 9.08268L17.4115 11.1615C17.0698 11.0763 16.7189 10.996 16.3702 10.9164L16.8921 8.82384L15.5933 8.5L15.0607 10.6343C14.7779 10.57 14.5002 10.5063 14.2308 10.4393L14.2323 10.4326L12.4401 9.98503L12.0943 11.3731C12.0943 11.3731 13.0586 11.5942 13.0383 11.6078C13.5645 11.7391 13.6597 12.0875 13.6439 12.3637L13.0376 14.796C13.0738 14.8052 13.1208 14.8185 13.1727 14.8393C13.1293 14.8286 13.0832 14.8168 13.0353 14.8054L12.1854 18.2127C12.1211 18.3726 11.9578 18.6125 11.5899 18.5214C11.6029 18.5403 10.6453 18.2857 10.6453 18.2857L10 19.7734L11.6913 20.195C12.0059 20.2739 12.3143 20.3564 12.6179 20.4341L12.0801 22.5936L13.3783 22.9174L13.9109 20.7808C14.2655 20.8771 14.6097 20.9659 14.9466 21.0496L14.4158 23.1762L15.7155 23.5L16.2533 21.3445C18.4694 21.764 20.1359 21.5949 20.8373 19.5903C21.4025 17.9764 20.8091 17.0455 19.6432 16.4385C20.4924 16.2426 21.1316 15.6839 21.3021 14.5301ZM18.3327 18.694C17.9311 20.3079 15.2138 19.4355 14.3328 19.2167L15.0464 16.3557C15.9274 16.5757 18.7524 17.0109 18.3327 18.694ZM18.7346 14.5068C18.3683 15.9748 16.1066 15.2289 15.373 15.0461L16.02 12.4513C16.7537 12.6342 19.1162 12.9755 18.7346 14.5068Z" fill="white"/>
</svg>
