<svg width="32" height="32" viewBox="0 0 32 32" fill="none" xmlns="http://www.w3.org/2000/svg">
<path d="M13 1.73205C14.8564 0.660254 17.1436 0.660254 19 1.73205L26.8564 6.26795C28.7128 7.33975 29.8564 9.32051 29.8564 11.4641V20.5359C29.8564 22.6795 28.7128 24.6603 26.8564 25.732L19 30.2679C17.1436 31.3397 14.8564 31.3397 13 30.268L5.14359 25.7321C3.28719 24.6603 2.14359 22.6795 2.14359 20.5359V11.4641C2.14359 9.32051 3.28719 7.33975 5.14359 6.26795L13 1.73205Z" fill="#D7A3E5"/>
<g clip-path="url(#clip0_1109_52275)">
<path d="M17.8581 10.403L15.9999 8.5L11.3208 13.2239L13.179 15.0821L17.8581 10.403Z" fill="white"/>
<path d="M20.679 13.2239L18.8208 11.3209L11.3208 18.8657L13.179 20.7239L20.679 13.2239Z" fill="white"/>
<path d="M10.3582 14.1417L12.2164 16.0447L10.3582 17.9029L8.5 16.0447L10.3582 14.1417Z" fill="white"/>
<path d="M23.5 16.0447L21.6418 14.1417L14.1419 21.6865L16.0001 23.5447L23.5 16.0447Z" fill="white"/>
</g>
<defs>
<clipPath id="clip0_1109_52275">
<rect width="16" height="16" fill="white" transform="translate(8 8)"/>
</clipPath>
</defs>
</svg>
