<svg width="32" height="32" viewBox="0 0 32 32" fill="none" xmlns="http://www.w3.org/2000/svg">
<path d="M13 1.73205C14.8564 0.660254 17.1436 0.660254 19 1.73205L26.8564 6.26795C28.7128 7.33975 29.8564 9.32051 29.8564 11.4641V20.5359C29.8564 22.6795 28.7128 24.6603 26.8564 25.732L19 30.2679C17.1436 31.3397 14.8564 31.3397 13 30.268L5.14359 25.7321C3.28719 24.6603 2.14359 22.6795 2.14359 20.5359V11.4641C2.14359 9.32051 3.28719 7.33975 5.14359 6.26795L13 1.73205Z" fill="#D7A3E5"/>
<path fill-rule="evenodd" clip-rule="evenodd" d="M11.1263 22.9907H15.74C15.74 22.9907 22.2273 23.5432 22.2273 16.1126C22.2273 8.97008 16.3033 8.99541 15.1584 9.0003C15.1316 9.00042 15.1074 9.00052 15.0859 9.00052H11.1262V15.2326H9.5V16.7591H11.1263V22.9907ZM13.725 11.5865H15.5452C16.226 11.5865 19.6512 11.8649 19.6567 16.1629C19.6621 20.4098 16.2087 20.4054 15.6532 20.4047C15.6465 20.4047 15.6402 20.4047 15.6344 20.4047H13.725V16.759H16.5887V15.2325H13.725V11.5865Z" fill="white"/>
</svg>
