<svg width="32" height="32" viewBox="0 0 32 32" fill="none" xmlns="http://www.w3.org/2000/svg">
<path d="M13 1.73205C14.8564 0.660254 17.1436 0.660254 19 1.73205L26.8564 6.26795C28.7128 7.33975 29.8564 9.32051 29.8564 11.4641V20.5359C29.8564 22.6795 28.7128 24.6603 26.8564 25.732L19 30.2679C17.1436 31.3397 14.8564 31.3397 13 30.268L5.14359 25.7321C3.28719 24.6603 2.14359 22.6795 2.14359 20.5359V11.4641C2.14359 9.32051 3.28719 7.33975 5.14359 6.26795L13 1.73205Z" fill="#D7A3E5"/>
<path d="M11.5001 16.1387L16.1039 8.5V8.50363L16.1049 8.5L20.7079 16.1377L20.7104 16.1388L16.1066 18.8601V18.8593L16.1049 18.8603L16.1039 18.8592V18.8601L11.5001 16.1387Z" fill="white"/>
<path d="M16.1039 23.4968V23.5L11.5 17.0124L16.1039 19.7323V19.7337L16.105 19.7323L20.7115 17.0124L16.105 23.5L16.1039 23.4968Z" fill="white"/>
</svg>
