<svg width="32" height="32" viewBox="0 0 32 32" fill="none" xmlns="http://www.w3.org/2000/svg">
<path d="M13 1.73205C14.8564 0.660254 17.1436 0.660254 19 1.73205L26.8564 6.26795C28.7128 7.33975 29.8564 9.32051 29.8564 11.4641V20.5359C29.8564 22.6795 28.7128 24.6603 26.8564 25.732L19 30.2679C17.1436 31.3397 14.8564 31.3397 13 30.268L5.14359 25.7321C3.28719 24.6603 2.14359 22.6795 2.14359 20.5359V11.4641C2.14359 9.32051 3.28719 7.33975 5.14359 6.26795L13 1.73205Z" fill="#D7A3E5"/>
<g clip-path="url(#clip0_1109_51762)">
<path fill-rule="evenodd" clip-rule="evenodd" d="M19.9625 9.95341C20.0993 9.81985 20.2362 9.68621 20.3813 9.5614C20.7441 9.24936 21.131 8.97347 21.5693 8.77654C21.8544 8.64845 22.1501 8.55515 22.4644 8.5308C22.5095 8.52731 22.5367 8.53561 22.5635 8.5786C22.6786 8.76377 22.7517 8.96476 22.8076 9.17392C22.9227 9.6049 22.9398 10.045 22.9229 10.4866C22.909 10.8472 22.8728 11.2064 22.8207 11.5641C22.7816 11.8329 22.7332 12.1 22.6847 12.3671L22.677 12.4096C22.6693 12.4519 22.66 12.494 22.6507 12.5361C22.6365 12.6002 22.6223 12.6645 22.6138 12.7297C22.6118 12.7366 22.6096 12.7435 22.6074 12.7503C22.6027 12.7651 22.598 12.7798 22.5947 12.7948C22.5162 13.161 22.4236 13.5237 22.3283 13.8857C22.2163 14.3119 22.0982 14.7366 21.96 15.1549C21.9195 15.2775 21.9465 15.3719 21.994 15.4775C22.0474 15.5961 22.1065 15.712 22.1656 15.8279C22.2571 16.0075 22.3486 16.1871 22.419 16.3767C22.5014 16.5984 22.5829 16.8203 22.6506 17.0469C22.7613 17.417 22.8449 17.7934 22.9057 18.1749C22.9429 18.4082 22.9719 18.6426 22.9926 18.8777C23.0106 19.0813 23.0236 19.2857 23.0295 19.49C23.0303 19.5156 23.0342 19.5411 23.0381 19.5667C23.0462 19.6196 23.0543 19.6727 23.0346 19.7259C23.0014 19.7209 22.9683 19.7154 22.9351 19.71C22.8628 19.6981 22.7905 19.6862 22.7178 19.6786C22.3709 19.6422 22.0249 19.6255 21.6752 19.6607C21.2716 19.7014 20.8828 19.7928 20.5096 19.9474C20.0241 20.1484 19.5957 20.4393 19.2147 20.8001C19.1442 20.8668 19.0757 20.9355 19.0059 21.0054C18.9734 21.0379 18.9407 21.0707 18.9073 21.1036L18.872 20.9975L18.8717 20.9966C18.844 20.9133 18.8169 20.8318 18.7895 20.7505C18.7025 20.4912 18.5811 20.2474 18.4597 20.0037C18.4254 19.9348 18.3911 19.8659 18.3576 19.7968C18.3117 19.7021 18.2543 19.6146 18.1852 19.535C17.942 19.2547 17.6681 19.0093 17.3518 18.8142C16.8641 18.5135 16.3272 18.383 15.7594 18.3816C15.4651 18.3808 15.1767 18.4404 14.8953 18.5283C14.3397 18.7021 13.8929 19.0339 13.5123 19.468C13.4062 19.589 13.3273 19.7252 13.2483 19.8615C13.2239 19.9036 13.1995 19.9457 13.1743 19.9874C13.0299 20.2262 12.8974 20.4713 12.787 20.7279C12.7512 20.8113 12.7152 20.8946 12.6784 20.9801L12.6235 21.1072L12.5544 21.0309C11.8997 20.3067 11.1172 19.8099 10.136 19.6592C9.77083 19.6031 9.40614 19.5999 9.0397 19.6295C8.86886 19.6433 8.70005 19.672 8.53126 19.7007L8.5 19.7061C8.50276 19.514 8.51812 19.3229 8.53349 19.1316L8.53652 19.0938C8.55796 18.8263 8.59604 18.5612 8.64093 18.2973C8.67897 18.0739 8.72769 17.8521 8.78074 17.6313C8.86574 17.2775 8.96703 16.9289 9.08922 16.5863C9.09178 16.5792 9.09448 16.572 9.09718 16.5648C9.11894 16.507 9.14069 16.4493 9.08617 16.3923C9.0849 16.391 9.08645 16.387 9.08867 16.3813C9.08993 16.3781 9.09142 16.3742 9.09271 16.37C9.13272 16.4229 9.15301 16.4138 9.17388 16.3571C9.29665 16.0239 9.43978 15.6992 9.58813 15.3767C9.60294 15.3445 9.61361 15.3134 9.59958 15.2786C9.46279 14.9392 9.3492 14.5919 9.24902 14.2402C9.1726 13.972 9.10132 13.7024 9.04318 13.4294C9.0143 13.2938 8.98408 13.1584 8.95387 13.023C8.94011 12.9614 8.92635 12.8997 8.91272 12.8381C8.90587 12.7322 8.88673 12.6281 8.86759 12.5241C8.85719 12.4675 8.84679 12.411 8.83836 12.3542C8.8014 12.105 8.76732 11.8555 8.7413 11.605C8.71454 11.3473 8.69604 11.0892 8.68324 10.8303C8.67074 10.5777 8.66766 10.3253 8.67704 10.0731C8.68866 9.7624 8.70953 9.45151 8.7884 9.14892C8.83122 8.98461 8.88711 8.82407 8.97858 8.67863C9.0837 8.51145 9.16887 8.47995 9.3639 8.51023C9.70606 8.56339 10.0074 8.712 10.2936 8.89603C10.6752 9.1415 11.0146 9.43928 11.3364 9.75779C11.428 9.84847 11.5198 9.93892 11.6116 10.0294L11.7241 10.1402C11.7266 10.1436 11.729 10.1471 11.7314 10.1506C11.7367 10.1584 11.7419 10.1661 11.7482 10.1729C11.8038 10.2337 11.8598 10.2942 11.9158 10.3547C12.0297 10.4779 12.1437 10.6011 12.2552 10.7264C12.4911 10.9914 12.725 11.2581 12.9551 11.528C13.0017 11.5828 13.0394 11.5914 13.1033 11.5651C13.508 11.3981 13.9275 11.2803 14.3573 11.1994C14.7289 11.1296 15.1056 11.1054 15.4827 11.0922C16.0227 11.0734 16.5608 11.0983 17.0944 11.1875C17.5725 11.2675 18.0404 11.3878 18.494 11.5605L18.4991 11.5624C18.5962 11.5994 18.5964 11.5995 18.6615 11.5077C18.8615 11.2257 19.0759 10.9549 19.2952 10.6878C19.4304 10.5233 19.5727 10.3651 19.715 10.2069C19.7459 10.1726 19.7768 10.1382 19.8076 10.1038C19.8595 10.054 19.911 10.0037 19.9625 9.95341ZM12.4052 15.9983C12.4966 16.0046 12.5986 15.9961 12.7025 15.9874C12.7272 15.9854 12.752 15.9833 12.7768 15.9814C12.9125 15.9712 13.0474 15.9455 13.1759 15.8991C13.2553 15.8705 13.3287 15.8239 13.3601 15.7409C13.4177 15.5883 13.4306 15.4276 13.3854 15.2718C13.3151 15.0296 13.1376 14.8662 12.9454 14.7166C12.7782 14.5864 12.5889 14.5341 12.3824 14.5691C12.0262 14.6292 11.6635 14.9449 11.6199 15.3161C11.6006 15.4795 11.5914 15.6355 11.6856 15.7827C11.749 15.8819 11.8151 15.9648 11.9457 15.9753L11.9731 15.9776C12.1114 15.9888 12.2504 16.0001 12.4052 15.9983ZM19.1326 16.0006C19.1884 16.0046 19.2671 15.998 19.3526 15.9909C19.3899 15.9878 19.4284 15.9846 19.467 15.9821C19.5797 15.9748 19.6864 15.949 19.755 15.8419C19.8513 15.6915 19.891 15.5283 19.8666 15.3532C19.8239 15.0463 19.6448 14.8313 19.3855 14.6795C19.1782 14.5582 18.9568 14.5198 18.7243 14.6036C18.589 14.6524 18.48 14.7431 18.3776 14.8393C18.1964 15.0095 18.0578 15.2045 18.0374 15.4646C18.0186 15.7035 18.1155 15.8475 18.3417 15.9143C18.5848 15.986 18.8344 15.9951 19.1326 16.0006ZM20.3585 17.038L20.3584 17.0157C20.3582 16.8724 20.3579 16.7285 20.3128 16.5913C20.308 16.5765 20.3036 16.5628 20.2996 16.5503C20.2541 16.4085 20.2539 16.4076 20.0888 16.4222C19.8426 16.4438 19.6222 16.5478 19.4049 16.6563C19.0963 16.8104 18.8039 16.9924 18.5168 17.1825C18.4768 17.209 18.4365 17.2352 18.3963 17.2614C18.2027 17.3873 18.0088 17.5133 17.8425 17.6758C17.6837 17.831 17.5419 17.9982 17.506 18.2295C17.4949 18.301 17.5187 18.343 17.5957 18.3616C17.6684 18.3791 17.7414 18.3938 17.8177 18.3936C18.1038 18.3931 18.3832 18.3423 18.659 18.2749C19.0141 18.1883 19.3589 18.0703 19.6846 17.9016C19.9011 17.7894 20.1055 17.6607 20.2711 17.4779C20.3146 17.4298 20.3468 17.3809 20.3458 17.3108C20.3449 17.2472 20.3491 17.1837 20.3534 17.1201C20.3552 17.0927 20.3571 17.0653 20.3585 17.038ZM11.2908 17.0146C11.2917 17.0317 11.2933 17.0521 11.295 17.0749C11.2996 17.1372 11.3056 17.2172 11.3038 17.2969C11.3014 17.3987 11.351 17.4668 11.4184 17.5317C11.6975 17.8008 12.04 17.9592 12.3963 18.0935C12.6278 18.1808 12.865 18.2486 13.1068 18.3019C13.3492 18.3553 13.5933 18.3941 13.8416 18.4009C13.9303 18.4034 14.0185 18.3935 14.1037 18.3648C14.1759 18.3404 14.1986 18.3054 14.187 18.2335C14.1767 18.1705 14.1576 18.1105 14.1289 18.0534C14.0179 17.8325 13.8464 17.6636 13.6477 17.5262C13.1348 17.1716 12.6143 16.8278 12.0389 16.5791C11.864 16.5034 11.6842 16.4415 11.4879 16.4438C11.4213 16.4446 11.3923 16.4719 11.3682 16.5286C11.3133 16.658 11.3047 16.7942 11.294 16.9652L11.2908 17.0146ZM9.48172 9.64461C9.43951 9.63881 9.4306 9.65101 9.3932 9.73499C9.25333 10.0489 9.21321 10.383 9.19597 10.7209C9.1853 10.9297 9.20288 11.1381 9.22114 11.3465C9.23381 11.4907 9.25095 11.6343 9.27277 11.7773C9.29699 11.9358 9.32528 12.0937 9.3556 12.2513C9.39581 12.4601 9.44138 12.6675 9.49311 12.8733C9.55761 13.13 9.62899 13.3851 9.70247 13.6394C9.74729 13.7946 9.79601 13.9487 9.84472 14.1028C9.86214 14.1579 9.87955 14.213 9.89679 14.2681C9.9013 14.2825 9.90692 14.3004 9.92707 14.3004C9.94029 14.3004 9.94555 14.2906 9.95073 14.2809C9.95206 14.2784 9.95339 14.2759 9.95485 14.2736C10.0967 14.0492 10.2392 13.8257 10.3998 13.6135C10.5998 13.3492 10.8055 13.09 11.0362 12.8517C11.2227 12.659 11.4119 12.4688 11.6185 12.2973C11.8103 12.138 12.0064 11.9838 12.2131 11.844C12.2511 11.8183 12.2488 11.7988 12.2206 11.7689C12.1724 11.718 12.1249 11.6665 12.0773 11.6149C11.9877 11.5179 11.8981 11.4209 11.8046 11.3279C11.5633 11.0875 11.3183 10.8512 11.0575 10.6311C10.8686 10.4716 10.6771 10.3157 10.4745 10.1744C10.2627 10.0268 10.0416 9.89306 9.81033 9.77886C9.70324 9.72601 9.59233 9.67744 9.48172 9.64461ZM19.9034 12.3745C19.924 12.4103 19.9555 12.4346 19.9871 12.4589C20.0059 12.4734 20.0248 12.4879 20.0413 12.5049C20.0978 12.563 20.155 12.6203 20.2123 12.6775C20.3541 12.8195 20.496 12.9614 20.6264 13.1149C20.7718 13.2861 20.9104 13.4622 21.0438 13.6425C21.1843 13.8323 21.3167 14.0277 21.4429 14.2271C21.4483 14.2356 21.4524 14.2454 21.4566 14.2552C21.4669 14.2794 21.477 14.3032 21.5047 14.3052C21.5152 14.306 21.5331 14.2498 21.5424 14.2182C21.5752 14.1074 21.6092 13.997 21.6433 13.8866C21.6892 13.7377 21.7351 13.5888 21.778 13.4389C21.8626 13.1427 21.941 12.845 22.0065 12.5444C22.0783 12.2156 22.1403 11.8848 22.1781 11.549C22.2032 11.3257 22.2174 11.1022 22.226 10.8786C22.2329 10.6973 22.2128 10.5161 22.1929 10.3355L22.187 10.2822C22.1856 10.2781 22.184 10.274 22.1824 10.2699C22.1789 10.2612 22.1755 10.2526 22.1745 10.2436C22.1532 10.0571 22.0954 9.88117 22.0177 9.71155C21.9794 9.62784 21.9708 9.62699 21.8824 9.66199C21.5759 9.78351 21.2864 9.93846 21.0155 10.1249C20.5904 10.4174 20.2028 10.7562 19.8315 11.1137C19.6153 11.3219 19.4091 11.5399 19.208 11.7627C19.1773 11.7967 19.1699 11.8152 19.2139 11.8474L19.2743 11.8916C19.4189 11.9971 19.5635 12.1026 19.7027 12.2157C19.7234 12.2325 19.7431 12.2508 19.7628 12.2692C19.8057 12.3092 19.8488 12.3494 19.9034 12.3745Z" fill="white"/>
<path d="M17.8924 22.2212L17.8555 22.3742C17.8208 22.5176 17.7866 22.6589 17.7531 22.8003C17.744 22.8385 17.7185 22.8385 17.6871 22.8384C17.5775 22.838 17.5771 22.8391 17.5378 22.9416L17.5372 22.9433C17.4915 23.0625 17.4457 23.1816 17.3986 23.3043L17.3234 23.5C17.3098 23.4745 17.2941 23.4511 17.2788 23.4282C17.242 23.3734 17.2072 23.3215 17.2083 23.2503C17.2099 23.1524 17.2106 23.0545 17.2113 22.9566C17.2121 22.8358 17.2129 22.7149 17.2155 22.594C17.2165 22.5444 17.208 22.5332 17.1561 22.5423C16.6975 22.6224 16.2352 22.6619 15.7697 22.6442C15.4811 22.6332 15.1928 22.6122 14.9088 22.5539C14.8858 22.5492 14.8623 22.5471 14.8398 22.5451C14.8298 22.5442 14.82 22.5433 14.8106 22.5422C14.8106 22.6054 14.8101 22.6686 14.8097 22.7316C14.8086 22.8831 14.8075 23.0342 14.8127 23.185C14.8167 23.3006 14.8084 23.4063 14.7204 23.4962C14.6445 23.3942 14.597 23.2753 14.556 23.1541L14.554 23.1484C14.5242 23.0604 14.4941 22.9716 14.4843 22.8784C14.477 22.8086 14.4289 22.8146 14.3866 22.8276C14.3223 22.8473 14.3027 22.8278 14.2899 22.7633C14.2745 22.6851 14.2607 22.6068 14.2554 22.528C14.2515 22.4713 14.2338 22.4293 14.1897 22.394C14.1656 22.3748 14.1437 22.3528 14.1218 22.3308C14.1115 22.3205 14.1012 22.3102 14.0906 22.3001C14.0717 22.282 14.0753 22.2589 14.0787 22.2374L14.079 22.2359C14.0819 22.2172 14.0957 22.2192 14.1081 22.221C14.1115 22.2215 14.1149 22.222 14.1178 22.222C14.221 22.2223 14.3242 22.2229 14.4274 22.2236C14.5111 22.2242 14.5947 22.2247 14.6784 22.2251C14.7132 22.2252 14.7419 22.2306 14.7426 22.274C14.7431 22.3017 14.7609 22.3025 14.7808 22.3034L14.785 22.3036C15.0289 22.3169 15.273 22.3173 15.5171 22.3176L15.5913 22.3178C15.62 22.3178 15.637 22.3091 15.6509 22.284C15.6657 22.2576 15.6814 22.2317 15.6972 22.2058C15.7143 22.1777 15.7315 22.1495 15.7473 22.1206C15.7741 22.0717 15.7993 22.0257 15.8686 22.0428C15.9 22.0504 15.9059 22.0294 15.9058 22.0025L15.9057 21.9888C15.905 21.8202 15.9043 21.6516 15.906 21.4831C15.9064 21.4499 15.8878 21.4424 15.8662 21.4338C15.8646 21.4331 15.8629 21.4324 15.8612 21.4317C15.8597 21.4311 15.8581 21.4305 15.8566 21.4298C15.5953 21.3166 15.3487 21.1796 15.1483 20.9724C14.9828 20.8012 14.881 20.6041 14.8958 20.3567C14.9007 20.2748 14.8994 20.1926 14.8981 20.1103C14.8975 20.0717 14.8969 20.033 14.8969 19.9944C14.8971 19.7374 15.0667 19.5675 15.3235 19.5674C15.7452 19.5672 16.1668 19.5671 16.5883 19.5674C16.8155 19.5676 17.0456 19.8001 17.0379 20.0273C17.0359 20.0867 17.0363 20.1462 17.0367 20.2058C17.0376 20.3352 17.0385 20.4647 17.0147 20.5929C16.9642 20.8656 16.8127 21.0739 16.596 21.2384C16.4854 21.3223 16.3658 21.3914 16.2333 21.4351C16.2038 21.4449 16.1962 21.4593 16.1964 21.4886C16.1976 21.6595 16.1981 21.8305 16.1962 22.0013C16.1958 22.0384 16.2081 22.051 16.2427 22.0452C16.2976 22.0358 16.3268 22.0606 16.3518 22.1098C16.3583 22.1227 16.3647 22.1362 16.3712 22.1499C16.4003 22.2109 16.431 22.2756 16.4805 22.3045C16.5216 22.3284 16.5796 22.3238 16.6373 22.3191C16.6613 22.3171 16.6853 22.3152 16.7081 22.3153C16.7582 22.3157 16.8084 22.3156 16.8585 22.3156C16.9588 22.3155 17.059 22.3155 17.1592 22.3183C17.2106 22.3197 17.2455 22.3093 17.265 22.259C17.273 22.2381 17.2877 22.2208 17.3157 22.2209C17.4605 22.2213 17.6052 22.2213 17.7514 22.2213L17.8924 22.2212Z" fill="white"/>
<path d="M16.0833 22.8114C16.0277 22.8113 15.9721 22.8112 15.9166 22.8112V22.8088C15.852 22.8088 15.7875 22.8088 15.723 22.8089C15.5939 22.8089 15.4648 22.8089 15.3358 22.8088C15.278 22.8088 15.2494 22.8088 15.2357 22.823C15.2218 22.8375 15.2233 22.8667 15.2254 22.9256C15.2265 22.9562 15.2412 22.9701 15.2626 22.9841C15.3042 23.0115 15.3499 23.0298 15.3956 23.0481C15.4127 23.0549 15.4299 23.0618 15.4468 23.0692C15.4901 23.0879 15.5135 23.0838 15.5309 23.0323C15.5638 22.9347 15.5681 22.935 15.6654 22.9414L15.6748 22.942C15.7097 22.9443 15.7284 22.9601 15.7441 22.9862C15.7594 23.0116 15.7745 23.037 15.7897 23.0624C15.8103 23.0971 15.831 23.1318 15.852 23.1663C15.9083 23.2592 15.999 23.2648 16.0699 23.1803C16.0881 23.1587 16.1063 23.1371 16.1246 23.1155C16.137 23.1008 16.1495 23.0861 16.1619 23.0714C16.2126 23.0113 16.2379 22.9812 16.2656 22.9789C16.2934 22.9766 16.3235 23.0023 16.3838 23.0538C16.3873 23.0568 16.3907 23.0601 16.394 23.0635C16.4062 23.0758 16.4182 23.088 16.4408 23.0826C16.5393 23.0592 16.6127 22.965 16.6156 22.8681C16.6172 22.8161 16.5961 22.8099 16.5521 22.8103C16.3958 22.8118 16.2396 22.8116 16.0833 22.8114Z" fill="white"/>
</g>
<defs>
<clipPath id="clip0_1109_51762">
<rect width="16" height="16" fill="white" transform="translate(8 8)"/>
</clipPath>
</defs>
</svg>
