<svg width="32" height="32" viewBox="0 0 32 32" fill="none" xmlns="http://www.w3.org/2000/svg">
<path d="M13 1.73207C14.8564 0.660273 17.1436 0.660273 19 1.73207L26.8564 6.26797C28.7128 7.33977 29.8564 9.32053 29.8564 11.4641V20.5359C29.8564 22.6795 28.7128 24.6603 26.8564 25.7321L19 30.268C17.1436 31.3398 14.8564 31.3398 13 30.268L5.14355 25.7321C3.28715 24.6603 2.14355 22.6795 2.14355 20.5359V11.4641C2.14355 9.32053 3.28715 7.33977 5.14355 6.26797L13 1.73207Z" fill="#D7A3E5"/>
<path fill-rule="evenodd" clip-rule="evenodd" d="M10.3751 9H20.659C21.052 9 21.3795 9.0655 21.7725 9.26201C22.231 9.45852 22.493 9.78603 22.624 10.048C22.624 10.048 22.624 10.1135 22.6895 10.1135C22.886 10.441 23.017 10.8341 23.017 11.2926C23.017 11.6856 22.9515 12.0786 22.6895 12.4716L16.2048 23.607C16.0738 23.869 15.8118 24 15.4843 24C15.2223 24 14.9603 23.869 14.7638 23.607L8.41005 12.4716C8.27905 12.2096 8.01704 11.8821 8.01704 11.3581C7.95154 10.8996 8.08254 10.5066 8.27905 10.1135C8.47555 9.72052 8.80306 9.39301 9.26158 9.26201C9.65459 9 10.1131 9 10.3751 9ZM14.6983 10.5721H10.3751C10.1131 10.5721 9.9821 10.5721 9.9166 10.6376C9.7856 10.7031 9.7201 10.7686 9.65459 10.8996C9.58909 10.9651 9.58909 11.0961 9.58909 11.2271C9.58909 11.2926 9.65459 11.3581 9.7856 11.6201L14.6983 20.1354V10.5721ZM16.2703 10.5721V20.2009L21.2485 11.6201C21.314 11.4891 21.314 11.3581 21.314 11.2271C21.314 11.0961 21.314 10.9651 21.2485 10.8996C21.183 10.8341 21.183 10.7686 21.1175 10.7686L21.052 10.7031C20.921 10.6376 20.79 10.6376 20.5935 10.6376H16.2703V10.5721Z" fill="white"/>
</svg>
