<svg width="32" height="32" viewBox="0 0 32 32" fill="none" xmlns="http://www.w3.org/2000/svg">
<path d="M13 1.73205C14.8564 0.660254 17.1436 0.660254 19 1.73205L26.8564 6.26795C28.7128 7.33975 29.8564 9.32051 29.8564 11.4641V20.5359C29.8564 22.6795 28.7128 24.6603 26.8564 25.732L19 30.2679C17.1436 31.3397 14.8564 31.3397 13 30.268L5.14359 25.7321C3.28719 24.6603 2.14359 22.6795 2.14359 20.5359V11.4641C2.14359 9.32051 3.28719 7.33975 5.14359 6.26795L13 1.73205Z" fill="#D7A3E5"/>
<path fill-rule="evenodd" clip-rule="evenodd" d="M17.4243 16.4321C17.3447 16.438 16.9337 16.4626 16.0169 16.4626C15.2877 16.4626 14.77 16.4407 14.5883 16.4321C11.7703 16.3081 9.66689 15.8175 9.66689 15.2302C9.66689 14.6429 11.7703 14.153 14.5883 14.027V15.9435C14.7726 15.9568 15.3003 15.9879 16.0295 15.9879C16.9045 15.9879 17.3427 15.9514 17.4216 15.9442V14.0283C20.2337 14.1536 22.3325 14.6442 22.3325 15.2302C22.3325 15.8162 20.2343 16.3068 17.4216 16.4314L17.4243 16.4321ZM17.4243 13.8301V12.1152H21.3487V9.5H10.6639V12.1152H14.5877V13.8295C11.3984 13.976 9 14.6077 9 15.3648C9 16.1218 11.3984 16.7529 14.5877 16.9001V22.3956H17.4236V16.8981C20.6056 16.7516 23 16.1205 23 15.3641C23 14.6077 20.6076 13.9766 17.4236 13.8295L17.4243 13.8301Z" fill="white"/>
</svg>
