<svg width="32" height="32" viewBox="0 0 32 32" fill="none" xmlns="http://www.w3.org/2000/svg">
<path d="M13 1.73205C14.8564 0.660254 17.1436 0.660254 19 1.73205L26.8564 6.26795C28.7128 7.33975 29.8564 9.32051 29.8564 11.4641V20.5359C29.8564 22.6795 28.7128 24.6603 26.8564 25.732L19 30.2679C17.1436 31.3397 14.8564 31.3397 13 30.268L5.14359 25.7321C3.28719 24.6603 2.14359 22.6795 2.14359 20.5359V11.4641C2.14359 9.32051 3.28719 7.33975 5.14359 6.26795L13 1.73205Z" fill="#D7A3E5"/>
<path d="M23.4708 10H21.3028L17.8724 13.3935C17.373 13.8857 16.6999 14.1616 15.9987 14.1616C15.2975 14.1616 14.6245 13.8857 14.1251 13.3935L10.6973 10H8.52759L13.0411 14.4672C14.6761 16.0841 17.3252 16.0841 18.959 14.4672L23.4708 10Z" fill="white"/>
<path d="M8.5 22.4218H10.6694L14.1276 19.0008C14.6271 18.5086 15.3001 18.2327 16.0013 18.2327C16.7025 18.2327 17.3756 18.5086 17.875 19.0008L21.332 22.4218H23.5L18.959 17.9271C17.3239 16.3102 14.6749 16.3102 13.041 17.9271L8.5 22.4218Z" fill="white"/>
</svg>
