<svg width="137" height="36" viewBox="0 0 137 36" fill="none" xmlns="http://www.w3.org/2000/svg">
<path d="M-0.000290861 30.6L-0.000289917 9L5.62379 9C9.32875 9 12.5006 9.85333 12.5006 14.6533C12.5006 17.2667 11.3012 18.6267 9.32875 19C11.8343 19.32 13.167 21.1333 13.167 24.2C13.167 28.68 10.7947 30.6 6.63665 30.6L-0.000290861 30.6ZM4.77085 17.64L5.70375 17.64C7.86276 17.64 8.31589 16.6 8.31589 14.7867C8.31589 13.08 7.38298 12.2 5.59714 12.2L4.77085 12.2L4.77085 17.64ZM4.77085 27.2667L5.78372 27.2667C7.88942 27.2667 8.55577 26.2 8.55577 24.12C8.55577 21.6933 7.83611 20.7867 5.75706 20.7867L4.77085 20.7867L4.77085 27.2667ZM15.9107 30.6L19.9889 9L25.4264 9L29.4512 30.6L25.0532 30.6L24.3335 26.04L21.1616 26.04L20.4153 30.6L15.9107 30.6ZM21.5881 23.1867L23.8804 23.1867L22.7343 14.76L21.5881 23.1867Z" fill="white"/>
<path d="M45.4181 35.8122C44.2395 35.4973 43.1816 34.7277 42.5235 33.5779C41.9282 32.5379 41.7635 31.3673 41.9737 30.274C42.6309 26.8447 38.5802 20.1693 35.5975 19.1311C34.5543 18.7676 33.6323 18.0383 33.037 16.9992C31.7263 14.708 32.5047 11.7797 34.7737 10.4572C37.0441 9.13425 39.9474 9.91958 41.2577 12.2098C41.8525 13.2499 42.0168 14.4205 41.8075 15.5142C41.2926 18.1934 44.4474 24.3233 46.7031 25.9079C49.4765 23.9233 57.7495 8.59525 57.1928 5.69838C56.9836 4.60604 57.1483 3.43451 57.7422 2.39542C59.0534 0.104229 61.9558 -0.679721 64.2262 0.642298C66.4962 1.96524 67.2745 4.8936 65.9638 7.1834C65.3685 8.22342 64.4456 8.95319 63.4033 9.3153C60.545 10.3104 50.5652 25.9852 51.3945 30.3014C51.6042 31.3942 51.4395 32.5657 50.8447 33.6048C49.7313 35.5524 47.4659 36.4109 45.4181 35.8122Z" fill="#D7A3E5"/>
<path d="M66.5997 30.2888L70.6778 9.28523L76.1153 9.28523L80.1401 30.2888L75.7421 30.2888L75.0224 25.8547L71.8506 25.8547L71.1042 30.2888L66.5997 30.2888ZM72.277 23.0802L74.5693 23.0802L73.4232 14.8862L72.277 23.0802ZM83.6531 30.2888L83.6531 9.28523L89.597 9.28523C93.9417 9.28523 96.767 10.4262 96.767 14.8343C96.767 17.4274 96.2606 19.1388 94.1283 20.1241L97.0869 30.2888L92.1558 30.2888L89.7836 20.8761L88.4242 20.8761L88.4242 30.2888L83.6531 30.2888ZM88.4242 18.2053L89.7569 18.2053C91.756 18.2053 92.3424 17.1162 92.3424 15.2492C92.3424 13.46 91.7827 12.3969 89.9702 12.3969L88.4242 12.3969L88.4242 18.2053ZM106.594 30.6C102.516 30.6 100.544 28.6034 100.384 23.9359L104.462 23.3395C104.515 26.0622 105.155 27.0735 106.354 27.0735C107.341 27.0735 107.554 26.2696 107.554 25.5436C107.554 23.8062 106.647 22.769 105.182 21.5503L103.316 19.9685C101.663 18.6202 100.41 17.0384 100.41 14.4972C100.41 10.9448 102.729 9 106.461 9C111.072 9 111.738 12.5006 111.818 14.964L107.714 15.4567C107.66 13.5897 107.527 12.3969 106.301 12.3969C105.421 12.3969 105.022 13.3044 105.022 14.0305C105.022 15.5863 105.848 16.4161 107.101 17.4792L108.886 19.0091C110.752 20.5649 112.245 22.406 112.245 25.3102C112.245 28.2922 110.033 30.6 106.594 30.6ZM115.915 30.2888L115.915 9.28523L120.686 9.28523L120.686 30.2888L115.915 30.2888ZM130.968 30.6C126.89 30.6 124.918 28.6034 124.758 23.9359L128.836 23.3395C128.889 26.0622 129.529 27.0735 130.729 27.0735C131.715 27.0735 131.928 26.2696 131.928 25.5436C131.928 23.8062 131.022 22.769 129.556 21.5503L127.69 19.9685C126.037 18.6202 124.785 17.0384 124.785 14.4972C124.785 10.9448 127.104 9 130.835 9C135.446 9 136.113 12.5006 136.193 14.964L132.088 15.4567C132.035 13.5897 131.901 12.3969 130.675 12.3969C129.796 12.3969 129.396 13.3044 129.396 14.0305C129.396 15.5863 130.222 16.4161 131.475 17.4792L133.261 19.0091C135.126 20.5649 136.619 22.406 136.619 25.3102C136.619 28.2922 134.407 30.6 130.968 30.6Z" fill="white"/>
</svg>
