<svg width="141" height="60" viewBox="0 0 141 60" fill="none" xmlns="http://www.w3.org/2000/svg">
<path d="M28.8252 45.1405C27.7309 44.8508 26.7487 44.1425 26.1376 43.0844C25.5849 42.1273 25.4319 41.0501 25.6271 40.044C26.2373 36.888 22.4762 30.7448 19.7068 29.7894C18.7382 29.4549 17.8821 28.7837 17.3294 27.8275C16.1124 25.719 16.8351 23.0241 18.9419 21.8071C21.05 20.5896 23.7457 21.3123 24.9623 23.42C25.5146 24.3771 25.6671 25.4543 25.4728 26.4609C24.9947 28.9265 27.9239 34.5677 30.0184 36.0259C32.5935 34.1995 40.275 20.0936 39.7581 17.4277C39.5638 16.4224 39.7168 15.3443 40.2682 14.388C41.4856 12.2795 44.1805 11.5581 46.2886 12.7747C48.3962 13.9922 49.119 16.687 47.9019 18.7943C47.3492 19.7514 46.4923 20.423 45.5245 20.7562C42.8706 21.672 33.6043 36.0971 34.3743 40.0691C34.5691 41.0748 34.4161 42.1529 33.8638 43.1091C32.83 44.9015 30.7258 45.6915 28.8244 45.1405H28.8256H28.8252Z" fill="#D7A3E5"/>
<path d="M30.0025 8.18115C33.7998 8.18115 37.3703 9.15274 40.4807 10.8586C39.576 11.4257 38.7928 12.215 38.223 13.2027C38.1174 13.386 38.0202 13.5739 37.9324 13.7661C35.5375 12.5942 32.8474 11.9358 30.0025 11.9358C20.0271 11.9358 11.94 20.0235 11.94 29.998C11.94 39.973 20.0263 48.0611 30.0025 48.0611C39.9783 48.0611 48.0642 39.9743 48.0642 29.998C48.0642 27.4702 47.5443 25.0625 46.6064 22.8786C47.8324 22.3885 48.8819 21.5554 49.6366 20.4764C51.0352 23.3541 51.8197 26.5847 51.8197 29.998C51.8197 42.0487 42.0518 51.8166 30.0016 51.8166C17.9514 51.8166 8.18359 42.0496 8.18359 29.9989C8.18359 17.9486 17.9514 8.18115 30.0016 8.18115H30.0025Z" fill="white"/>
<path d="M59.9989 37.4873L59.9989 22.4941L63.9045 22.4941C66.4774 22.4941 68.6801 23.0865 68.6801 26.4183C68.6801 28.2323 67.8471 29.1763 66.4774 29.4354C68.2173 29.6575 69.1428 30.9162 69.1428 33.0449C69.1428 36.1546 67.4954 37.4873 64.6079 37.4873L59.9989 37.4873ZM63.3122 28.4914L63.96 28.4914C65.4593 28.4914 65.774 27.7695 65.774 26.5108C65.774 25.3262 65.1261 24.7153 63.886 24.7153L63.3122 24.7153L63.3122 28.4914ZM63.3122 35.1735L64.0155 35.1735C65.4778 35.1735 65.9406 34.4331 65.9406 32.9893C65.9406 31.3049 65.4408 30.6756 63.997 30.6756L63.3122 30.6756L63.3122 35.1735ZM71.0482 37.4873L73.8802 22.4941L77.6562 22.4941L80.4512 37.4873L77.3971 37.4873L76.8973 34.3221L74.6946 34.3221L74.1764 37.4873L71.0482 37.4873ZM74.9908 32.3415L76.5827 32.3415L75.7867 26.4923L74.9908 32.3415ZM84.3111 37.4873L81.6087 22.4941L84.4407 22.4941L86.0511 32.6747L87.5504 22.4941L90.549 22.4941L87.8095 37.4873L84.3111 37.4873ZM91.6801 37.4873L94.5122 22.4941L98.2882 22.4941L101.083 37.4873L98.0291 37.4873L97.5293 34.3221L95.3266 34.3221L94.8083 37.4873L91.6801 37.4873ZM95.6228 32.3415L97.2146 32.3415L96.4187 26.4923L95.6228 32.3415ZM103.523 37.4873L103.523 22.4941L107.65 22.4941C110.668 22.4941 112.63 23.3086 112.63 26.4553C112.63 28.3063 112.278 29.528 110.797 30.2313L112.852 37.4873L109.427 37.4873L107.78 30.7681L106.836 30.7681L106.836 37.4873L103.523 37.4873ZM106.836 28.8616L107.762 28.8616C109.15 28.8616 109.557 28.0842 109.557 26.7515C109.557 25.4743 109.168 24.7153 107.91 24.7153L106.836 24.7153L106.836 28.8616ZM119.454 37.7094C116.622 37.7094 115.252 36.2841 115.141 32.9523L117.973 32.5266C118.01 34.4701 118.455 35.192 119.287 35.192C119.972 35.192 120.12 34.6182 120.12 34.0999C120.12 32.8598 119.491 32.1194 118.473 31.2494L117.177 30.1203C116.03 29.1578 115.16 28.0286 115.16 26.2147C115.16 23.6788 116.77 22.2905 119.362 22.2905C122.564 22.2905 123.026 24.7894 123.082 26.5478L120.231 26.8995C120.194 25.5668 120.102 24.7153 119.25 24.7153C118.64 24.7153 118.362 25.3632 118.362 25.8815C118.362 26.9921 118.936 27.5844 119.806 28.3433L121.046 29.4354C122.342 30.546 123.378 31.8602 123.378 33.9334C123.378 36.062 121.842 37.7094 119.454 37.7094ZM125.927 37.4873L125.927 22.4941L129.24 22.4941L129.24 37.4873L125.927 37.4873ZM136.381 37.7094C133.549 37.7094 132.179 36.2841 132.068 32.9523L134.9 32.5266C134.937 34.4701 135.381 35.192 136.214 35.192C136.899 35.192 137.047 34.6182 137.047 34.0999C137.047 32.8598 136.418 32.1194 135.4 31.2494L134.104 30.1203C132.956 29.1578 132.086 28.0286 132.086 26.2147C132.086 23.6788 133.697 22.2905 136.288 22.2905C139.49 22.2905 139.953 24.7894 140.009 26.5478L137.158 26.8995C137.121 25.5668 137.028 24.7153 136.177 24.7153C135.566 24.7153 135.288 25.3632 135.288 25.8815C135.288 26.9921 135.862 27.5844 136.732 28.3433L137.972 29.4354C139.268 30.546 140.305 31.8602 140.305 33.9334C140.305 36.062 138.768 37.7094 136.381 37.7094Z" fill="white"/>
</svg>
