<svg width="32" height="31" viewBox="0 0 32 31" fill="none" xmlns="http://www.w3.org/2000/svg">
<g clip-path="url(#clip0_1109_48941)">
<g clip-path="url(#clip1_1109_48941)" filter="url(#filter0_d_1109_48941)">
</g>
<path d="M8 15.5C9.78309 15.7119 11.443 16.5175 12.7128 17.7872C13.9825 19.057 14.7881 20.7169 15 22.5C15.8839 21.9904 16.6233 21.2638 17.1482 20.3889C17.6732 19.514 17.9663 18.5197 18 17.5C19.6791 16.9093 21.1454 15.834 22.2133 14.41C23.2813 12.986 23.9031 11.2773 24 9.5C24 8.70435 23.6839 7.94129 23.1213 7.37868C22.5587 6.81607 21.7956 6.5 21 6.5C19.2227 6.59691 17.514 7.21867 16.09 8.28665C14.666 9.35464 13.5907 10.8209 13 12.5C11.9803 12.5337 10.986 12.8268 10.1111 13.3518C9.23617 13.8767 8.50959 14.6161 8 15.5" stroke="#999999" stroke-width="1.5" stroke-linecap="round" stroke-linejoin="round"/>
<path d="M10.9995 16.5C9.95873 17.0876 9.11716 17.9726 8.58266 19.0416C8.04816 20.1106 7.8451 21.3148 7.9995 22.5C9.18466 22.6544 10.3889 22.4513 11.4579 21.9168C12.5269 21.3823 13.4119 20.5408 13.9995 19.5" stroke="#999999" stroke-width="1.5" stroke-linecap="round" stroke-linejoin="round"/>
<path d="M19 12.5C19.5523 12.5 20 12.0523 20 11.5C20 10.9477 19.5523 10.5 19 10.5C18.4477 10.5 18 10.9477 18 11.5C18 12.0523 18.4477 12.5 19 12.5Z" stroke="#999999" stroke-width="1.5" stroke-linecap="round" stroke-linejoin="round"/>
</g>
<defs>
<filter id="filter0_d_1109_48941" x="-63" y="5.5" width="92" height="88" filterUnits="userSpaceOnUse" color-interpolation-filters="sRGB">
<feFlood flood-opacity="0" result="BackgroundImageFix"/>
<feColorMatrix in="SourceAlpha" type="matrix" values="0 0 0 0 0 0 0 0 0 0 0 0 0 0 0 0 0 0 127 0" result="hardAlpha"/>
<feOffset/>
<feGaussianBlur stdDeviation="15"/>
<feColorMatrix type="matrix" values="0 0 0 0 0.819752 0 0 0 0 0.47526 0 0 0 0 0.9125 0 0 0 0.3 0"/>
<feBlend mode="normal" in2="BackgroundImageFix" result="effect1_dropShadow_1109_48941"/>
<feBlend mode="normal" in="SourceGraphic" in2="effect1_dropShadow_1109_48941" result="shape"/>
</filter>
<clipPath id="clip0_1109_48941">
<rect width="32" height="30" fill="white" transform="translate(0 0.5)"/>
</clipPath>
<clipPath id="clip1_1109_48941">
<rect width="32" height="28" fill="white" transform="translate(-33 35.5)"/>
</clipPath>
</defs>
</svg>
