<svg width="24" height="24" viewBox="0 0 24 24" fill="none" xmlns="http://www.w3.org/2000/svg">
<g clip-path="url(#clip0_1172_10676)">
<path d="M17.3984 14.3546C17.1064 14.2046 15.652 13.4921 15.3815 13.3957C15.1109 13.2939 14.9127 13.2457 14.7172 13.5457C14.519 13.843 13.9565 14.5046 13.7797 14.7055C13.6083 14.9037 13.4342 14.9278 13.1422 14.7805C11.4065 13.9126 10.2681 13.2323 9.1244 11.2689C8.82173 10.7466 9.42708 10.7841 9.99225 9.65639C10.0887 9.45818 10.0405 9.28943 9.96546 9.13943C9.89046 8.98943 9.30119 7.53764 9.05476 6.94567C8.81637 6.36978 8.56995 6.45014 8.39048 6.43943C8.21906 6.42871 8.02352 6.42871 7.82531 6.42871C7.6271 6.42871 7.30835 6.50371 7.03782 6.79568C6.76729 7.093 6.00391 7.80818 6.00391 9.25996C6.00391 10.7117 7.06193 12.118 7.20657 12.3162C7.35657 12.5144 9.28779 15.493 12.2529 16.776C14.1279 17.585 14.8618 17.6546 15.7993 17.5153C16.3698 17.4296 17.5457 16.8028 17.7895 16.1091C18.0332 15.418 18.0332 14.826 17.9609 14.7028C17.8886 14.5716 17.6904 14.4966 17.3984 14.3546Z" fill="#D7A3E5"/>
<path d="M23.0677 7.35C22.4624 5.91161 21.5945 4.62054 20.4883 3.51161C19.3821 2.40536 18.091 1.53482 16.6499 0.932143C15.1767 0.313393 13.6125 0 12 0H11.9464C10.3232 0.00803571 8.75094 0.329464 7.27238 0.961607C5.84472 1.57232 4.56438 2.44018 3.46886 3.54643C2.37334 4.65268 1.51353 5.93839 0.918891 7.37143C0.302827 8.85536 -0.00788365 10.433 0.000151961 12.0562C0.00818757 13.9152 0.452825 15.7607 1.28585 17.4107V21.4821C1.28585 22.1625 1.83763 22.7143 2.51798 22.7143H6.59203C8.24201 23.5473 10.0875 23.992 11.9464 24H12.0027C13.6071 24 15.1634 23.6893 16.6285 23.0813C18.0615 22.4839 19.3499 21.6268 20.4535 20.5312C21.5597 19.4357 22.4302 18.1554 23.0383 16.7277C23.6704 15.2491 23.9918 13.6768 23.9999 12.0536C24.0079 10.4223 23.6918 8.83929 23.0677 7.35ZM19.0204 19.0821C17.1428 20.9411 14.6518 21.9643 12 21.9643H11.9545C10.3393 21.9563 8.73486 21.5545 7.31792 20.7991L7.09292 20.6786H3.32154V16.9071L3.201 16.6821C2.44566 15.2652 2.04388 13.6607 2.03584 12.0455C2.02513 9.375 3.04565 6.86786 4.91795 4.97946C6.78757 3.09107 9.28664 2.04643 11.9571 2.03571H12.0027C13.3419 2.03571 14.641 2.29554 15.8651 2.80982C17.0598 3.31071 18.1312 4.03125 19.0526 4.95268C19.9713 5.87143 20.6945 6.94554 21.1954 8.14018C21.7151 9.37768 21.9749 10.6902 21.9695 12.0455C21.9534 14.7134 20.9061 17.2125 19.0204 19.0821Z" fill="#D7A3E5"/>
</g>
<defs>
<clipPath id="clip0_1172_10676">
<rect width="24" height="24" fill="white"/>
</clipPath>
</defs>
</svg>
