<svg width="33" height="24" viewBox="0 0 33 24" fill="none" xmlns="http://www.w3.org/2000/svg">
<g clip-path="url(#clip0_1172_10679)">
<path d="M31.5373 4.2798C31.3595 3.59436 31.0029 2.96842 30.5039 2.46594C30.0049 1.96346 29.3816 1.60244 28.6974 1.41978C24.5495 0.930563 20.3742 0.710103 16.1977 0.759783C12.0213 0.710103 7.84598 0.930563 3.698 1.41978C3.01385 1.60244 2.39045 1.96346 1.8915 2.46594C1.39253 2.96842 1.03592 3.59436 0.858066 4.2798C0.403697 6.82768 0.182782 9.41176 0.198082 11.9998C0.182022 14.6012 0.402937 17.1986 0.858066 19.7598C1.04514 20.4342 1.40585 21.0476 1.9042 21.539C2.40253 22.0304 3.02105 22.3824 3.698 22.5598C7.84598 23.049 12.0213 23.2696 16.1977 23.2198C20.3742 23.2696 24.5495 23.049 28.6974 22.5598C29.3744 22.3824 29.9929 22.0304 30.4911 21.539C30.9895 21.0476 31.3503 20.4342 31.5373 19.7598C31.9925 17.1986 32.2133 14.6012 32.1973 11.9998C32.2127 9.41176 31.9917 6.82768 31.5373 4.2798ZM12.9178 16.7798V7.25978L21.2976 11.9998L12.9178 16.7598V16.7798Z" fill="#D7A3E5"/>
</g>
<defs>
<clipPath id="clip0_1172_10679">
<rect width="33" height="24" fill="white"/>
</clipPath>
</defs>
</svg>
