<svg width="267" height="300" viewBox="0 0 267 300" fill="none" xmlns="http://www.w3.org/2000/svg">
<path d="M12.4906 232.722L12.4901 232.722C5.53845 228.716 1.25 221.296 1.25 213.266V86.7342C1.25 78.7125 5.52954 71.293 12.4905 67.2776L12.4906 67.2775L122.134 4.01167L122.134 4.01146C129.086 -0.0036842 137.654 -0.0040172 144.616 4.01167C144.616 4.01169 144.616 4.01171 144.616 4.01173L254.259 67.2775L254.26 67.2778C261.212 71.2841 265.5 78.7036 265.5 86.7342V213.266C265.5 221.287 261.22 228.707 254.26 232.722L254.259 232.722L144.616 295.988L144.616 295.989C137.664 300.004 129.096 300.004 122.134 295.988L12.4906 232.722Z" fill="#1C1C1B" stroke="#D7A3E5" stroke-width="2"/>
</svg>
