<svg width="64" height="64" viewBox="0 0 64 64" fill="none" xmlns="http://www.w3.org/2000/svg">
<path fill-rule="evenodd" clip-rule="evenodd" d="M0 32C0 14.3269 14.3269 0 32 0C49.6731 0 64 14.3269 64 32C64 49.6731 49.6731 64 32 64C14.3269 64 0 49.6731 0 32ZM32 3.04762C16.01 3.04762 3.04762 16.01 3.04762 32C3.04762 47.99 16.01 60.9524 32 60.9524C47.99 60.9524 60.9524 47.99 60.9524 32C60.9524 16.01 47.99 3.04762 32 3.04762Z" fill="#D7A3E5"/>
<path d="M29.5467 26.2999C29.3762 26.143 29.0595 25.93 28.5966 25.661C28.1582 25.392 27.6101 25.1341 26.9524 24.8875C26.319 24.6409 25.6248 24.4279 24.8696 24.2486C24.1145 24.0468 23.3471 23.9459 22.5676 23.9459C21.2035 23.9459 20.1682 24.1813 19.4618 24.6521C18.7797 25.1229 18.4387 25.7843 18.4387 26.6362C18.4387 27.2864 18.6579 27.802 19.0964 28.1832C19.5349 28.5643 20.1926 28.8894 21.0695 29.1584C21.9465 29.4274 23.0426 29.7189 24.3581 30.0328C26.0632 30.4139 27.537 30.8847 28.7793 31.4452C30.046 31.9832 31.0082 32.7006 31.666 33.5974C32.348 34.4718 32.6891 35.6376 32.6891 37.0948C32.6891 38.3727 32.4333 39.4713 31.9217 40.3905C31.4102 41.2872 30.7038 42.0159 29.8024 42.5763C28.9011 43.1368 27.878 43.5516 26.7331 43.8206C25.5882 44.0672 24.3702 44.1905 23.0792 44.1905C21.7881 44.1905 20.4971 44.0672 19.206 43.8206C17.9149 43.574 16.6726 43.2265 15.479 42.7781C14.2854 42.3073 13.1892 41.7468 12.1904 41.0967L14.4193 37.0948C14.6386 37.2966 15.0283 37.5656 15.5886 37.9019C16.1489 38.2158 16.8309 38.5409 17.6348 38.8772C18.4387 39.191 19.3156 39.4601 20.2656 39.6843C21.2157 39.9084 22.1779 40.0205 23.1523 40.0205C24.5164 40.0205 25.5517 39.8076 26.2581 39.3816C26.9645 38.9556 27.3178 38.3503 27.3178 37.5656C27.3178 36.8482 27.0376 36.2877 26.4774 35.8842C25.9171 35.4806 25.1376 35.1331 24.1388 34.8417C23.1401 34.5278 21.9586 34.1915 20.5945 33.8328C18.9624 33.4069 17.5983 32.9361 16.5021 32.4204C15.4059 31.8823 14.5899 31.2098 14.0539 30.4027C13.518 29.5956 13.2501 28.5867 13.2501 27.3761C13.2501 25.7395 13.6642 24.3719 14.4924 23.2733C15.345 22.1524 16.4899 21.3117 17.9271 20.7512C19.3643 20.1683 20.9599 19.8768 22.7138 19.8768C23.9318 19.8768 25.0767 20.0001 26.1485 20.2467C27.2447 20.4934 28.2678 20.8184 29.2178 21.222C30.1678 21.6255 31.0204 22.0627 31.7756 22.5335L29.5467 26.2999Z" fill="#D7A3E5"/>
<path d="M51.8095 39.8524V43.9215H37.1206V39.8524H42.1631V24.3158C41.9682 24.5849 41.6393 24.8875 41.1765 25.2238C40.738 25.5377 40.2265 25.8516 39.6418 26.1654C39.0816 26.4569 38.4969 26.7035 37.8879 26.9053C37.3033 27.107 36.7674 27.2079 36.2802 27.2079V23.0379C36.9379 23.0379 37.6078 22.881 38.2899 22.5671C38.9719 22.2533 39.6053 21.8946 40.1899 21.491C40.7746 21.0875 41.2374 20.7175 41.5784 20.3813C41.9438 20.0226 42.1387 19.832 42.1631 19.8096H47.169V39.8524H51.8095Z" fill="#D7A3E5"/>
</svg>
