<svg width="64" height="64" viewBox="0 0 64 64" fill="none" xmlns="http://www.w3.org/2000/svg">
<path fill-rule="evenodd" clip-rule="evenodd" d="M0 32C0 14.3269 14.3269 0 32 0C49.6731 0 64 14.3269 64 32C64 49.6731 49.6731 64 32 64C14.3269 64 0 49.6731 0 32ZM32 3.04762C16.01 3.04762 3.04762 16.01 3.04762 32C3.04762 47.99 16.01 60.9524 32 60.9524C47.99 60.9524 60.9524 47.99 60.9524 32C60.9524 16.01 47.99 3.04762 32 3.04762Z" fill="#D7A3E5"/>
<path d="M37.1497 38.8218V42.3723H27.5996V38.8218H30.878V25.2652C30.7513 25.5 30.5375 25.7641 30.2366 26.0575C29.9515 26.3314 29.6189 26.6052 29.2388 26.8791C28.8746 27.1334 28.4945 27.3486 28.0985 27.5247C27.7184 27.7007 27.37 27.7887 27.0532 27.7887V24.1502C27.4809 24.1502 27.9164 24.0133 28.3598 23.7394C28.8033 23.4655 29.2151 23.1525 29.5952 22.8004C29.9753 22.4483 30.2762 22.1255 30.4979 21.8321C30.7355 21.5191 30.8622 21.3528 30.878 21.3333H34.1327V38.8218H37.1497Z" fill="#D7A3E5"/>
<path d="M45.9927 42.6657C44.8049 42.6462 43.7517 42.3136 42.8331 41.668C41.9145 41.0225 41.1464 40.1715 40.5287 39.1152C39.911 38.0588 39.4438 36.9242 39.1271 35.7114C38.8262 34.479 38.6757 33.2759 38.6757 32.1022C38.6757 30.8502 38.842 29.5982 39.1746 28.3463C39.5072 27.0943 39.9902 25.9597 40.6237 24.9425C41.2731 23.9057 42.0491 23.0841 42.9519 22.4776C43.8546 21.8516 44.8682 21.5387 45.9927 21.5387C47.2122 21.5387 48.2733 21.8712 49.176 22.5363C50.0946 23.2014 50.8627 24.0622 51.4804 25.1185C52.0981 26.1749 52.5574 27.3193 52.8583 28.5517C53.175 29.7841 53.3334 30.9676 53.3334 32.1022C53.3334 33.3737 53.1671 34.6355 52.8345 35.8874C52.5019 37.1199 52.011 38.2447 51.3616 39.2619C50.7281 40.2791 49.96 41.1007 49.0573 41.7267C48.1545 42.3332 47.133 42.6462 45.9927 42.6657ZM41.9778 32.1022C41.9937 32.9238 42.0808 33.7454 42.2392 34.567C42.4134 35.3691 42.6589 36.1124 42.9756 36.7971C43.3082 37.4818 43.7279 38.0393 44.2347 38.4696C44.7415 38.8804 45.3275 39.0858 45.9927 39.0858C46.7054 39.0858 47.3151 38.8609 47.8219 38.411C48.3287 37.961 48.7405 37.3839 49.0573 36.6797C49.3898 35.9755 49.6353 35.2223 49.7937 34.4203C49.9521 33.6182 50.0313 32.8455 50.0313 32.1022C50.0313 31.2806 49.9442 30.4687 49.77 29.6667C49.6116 28.8451 49.3582 28.092 49.0097 27.4073C48.6772 26.7226 48.2575 26.1749 47.7507 25.7641C47.2597 25.3337 46.6737 25.1185 45.9927 25.1185C45.2958 25.1185 44.694 25.3435 44.1872 25.7934C43.6804 26.2433 43.2607 26.8204 42.9281 27.5247C42.6113 28.2289 42.3738 28.982 42.2154 29.7841C42.057 30.5861 41.9778 31.3588 41.9778 32.1022Z" fill="#D7A3E5"/>
<path d="M21.6654 27.4511C21.5574 27.3177 21.3567 27.1365 21.0634 26.9077C20.7855 26.6789 20.4382 26.4597 20.0214 26.2499C19.6201 26.0402 19.1801 25.859 18.7016 25.7065C18.223 25.5349 17.7368 25.4491 17.2428 25.4491C16.3784 25.4491 15.7223 25.6493 15.2746 26.0497C14.8424 26.4501 14.6263 27.0126 14.6263 27.7371C14.6263 28.2901 14.7652 28.7286 15.0431 29.0528C15.3209 29.3769 15.7377 29.6534 16.2935 29.8822C16.8492 30.111 17.5438 30.3589 18.3774 30.6258C19.458 30.9499 20.3919 31.3503 21.1792 31.827C21.9819 32.2846 22.5917 32.8948 23.0084 33.6574C23.4407 34.401 23.6568 35.3925 23.6568 36.6319C23.6568 37.7187 23.4947 38.653 23.1705 39.4347C22.8464 40.1974 22.3987 40.8171 21.8275 41.2938C21.2564 41.7704 20.608 42.1232 19.8825 42.352C19.157 42.5617 18.3851 42.6666 17.567 42.6666C16.7488 42.6666 15.9307 42.5617 15.1125 42.352C14.2944 42.1422 13.5071 41.8467 12.7507 41.4654C11.9943 41.065 11.2997 40.5883 10.6667 40.0353L12.0792 36.6319C12.2181 36.8035 12.4651 37.0323 12.8202 37.3183C13.1752 37.5852 13.6075 37.8617 14.1169 38.1477C14.6263 38.4146 15.182 38.6435 15.784 38.8341C16.3861 39.0248 16.9958 39.1201 17.6133 39.1201C18.4778 39.1201 19.1338 38.939 19.5815 38.5767C20.0291 38.2144 20.253 37.6996 20.253 37.0323C20.253 36.4221 20.0755 35.9455 19.7204 35.6023C19.3654 35.2591 18.8714 34.9635 18.2385 34.7157C17.6056 34.4487 16.8569 34.1627 15.9924 33.8576C14.9582 33.4954 14.0937 33.095 13.3991 32.6564C12.7044 32.1988 12.1873 31.6268 11.8477 30.9404C11.5081 30.254 11.3382 29.396 11.3382 28.3664C11.3382 26.9745 11.6007 25.8114 12.1255 24.8771C12.6658 23.9237 13.3913 23.2087 14.3021 22.7321C15.2129 22.2363 16.224 21.9884 17.3354 21.9884C18.1073 21.9884 18.8328 22.0933 19.512 22.3031C20.2067 22.5128 20.855 22.7893 21.457 23.1325C22.0591 23.4757 22.5994 23.8475 23.0779 24.2479L21.6654 27.4511Z" fill="#D7A3E5"/>
</svg>
