<svg width="64" height="64" viewBox="0 0 64 64" fill="none" xmlns="http://www.w3.org/2000/svg">
<path fill-rule="evenodd" clip-rule="evenodd" d="M0 32C0 14.3269 14.3269 0 32 0C49.6731 0 64 14.3269 64 32C64 49.6731 49.6731 64 32 64C14.3269 64 0 49.6731 0 32ZM32 3.04762C16.01 3.04762 3.04762 16.01 3.04762 32C3.04762 47.99 16.01 60.9524 32 60.9524C47.99 60.9524 60.9524 47.99 60.9524 32C60.9524 16.01 47.99 3.04762 32 3.04762Z" fill="#D7A3E5"/>
<path d="M40.3587 39.0655V42.6655H29.7191V39.0655H33.3715V25.32C33.2304 25.5581 32.9922 25.8258 32.6569 26.1233C32.3393 26.401 31.9688 26.6787 31.5453 26.9564C31.1395 27.2143 30.716 27.4324 30.2749 27.611C29.8515 27.7895 29.4633 27.8787 29.1104 27.8787V24.1895C29.5868 24.1895 30.072 24.0506 30.5661 23.7729C31.0601 23.4952 31.5189 23.1779 31.9423 22.8209C32.3658 22.4638 32.701 22.1366 32.9481 21.839C33.2127 21.5217 33.3539 21.3531 33.3715 21.3333H36.9974V39.0655H40.3587Z" fill="#D7A3E5"/>
<path d="M53.3334 39.0655V42.6655H42.6939V39.0655H46.3463V25.32C46.2051 25.5581 45.9669 25.8258 45.6317 26.1233C45.3141 26.401 44.9436 26.6787 44.5201 26.9564C44.1143 27.2143 43.6908 27.4324 43.2497 27.611C42.8262 27.7895 42.4381 27.8787 42.0852 27.8787V24.1895C42.5616 24.1895 43.0468 24.0506 43.5408 23.7729C44.0349 23.4952 44.4936 23.1779 44.9171 22.8209C45.3405 22.4638 45.6758 22.1366 45.9228 21.839C46.1875 21.5217 46.3286 21.3531 46.3463 21.3333H49.9722V39.0655H53.3334Z" fill="#D7A3E5"/>
<path d="M22.9201 27.2391C22.7997 27.1037 22.5762 26.9201 22.2494 26.6881C21.9399 26.4561 21.5529 26.2338 21.0886 26.0211C20.6414 25.8084 20.1513 25.6248 19.6182 25.4701C19.085 25.2961 18.5433 25.2091 17.993 25.2091C17.0299 25.2091 16.299 25.4121 15.8003 25.8181C15.3187 26.2241 15.078 26.7944 15.078 27.529C15.078 28.0897 15.2327 28.5343 15.5423 28.863C15.8519 29.1917 16.3162 29.472 16.9353 29.704C17.5544 29.936 18.3283 30.1873 19.257 30.458C20.4608 30.7866 21.5013 31.1926 22.3784 31.6759C23.2727 32.1399 23.952 32.7586 24.4163 33.5319C24.8979 34.2858 25.1386 35.2911 25.1386 36.5478C25.1386 37.6497 24.9581 38.597 24.5969 39.3897C24.2357 40.163 23.737 40.7913 23.1007 41.2746C22.4644 41.7579 21.7421 42.1156 20.9338 42.3476C20.1255 42.5603 19.2656 42.6666 18.3541 42.6666C17.4426 42.6666 16.5312 42.5603 15.6197 42.3476C14.7082 42.1349 13.8311 41.8353 12.9884 41.4486C12.1458 41.0426 11.3719 40.5593 10.6667 39.9987L12.2403 36.5478C12.3951 36.7218 12.6703 36.9538 13.0658 37.2437C13.4614 37.5144 13.9429 37.7947 14.5104 38.0847C15.078 38.3554 15.6971 38.5874 16.3678 38.7807C17.0385 38.974 17.7178 39.0707 18.4057 39.0707C19.3688 39.0707 20.0997 38.887 20.5984 38.5197C21.0972 38.1524 21.3465 37.6304 21.3465 36.9538C21.3465 36.3351 21.1488 35.8518 20.7532 35.5038C20.3577 35.1558 19.8073 34.8562 19.1022 34.6048C18.3971 34.3342 17.563 34.0442 16.6 33.7349C15.4477 33.3675 14.4846 32.9615 13.7107 32.5169C12.9368 32.0529 12.3607 31.4729 11.9824 30.7769C11.604 30.081 11.4148 29.211 11.4148 28.167C11.4148 26.7557 11.7072 25.5764 12.2919 24.6291C12.8939 23.6625 13.7021 22.9375 14.7168 22.4542C15.7315 21.9516 16.8579 21.7002 18.0962 21.7002C18.956 21.7002 19.7643 21.8066 20.521 22.0192C21.2949 22.2319 22.0172 22.5122 22.688 22.8602C23.3587 23.2082 23.9606 23.5852 24.4937 23.9912L22.9201 27.2391Z" fill="#D7A3E5"/>
</svg>
