<svg width="64" height="64" viewBox="0 0 64 64" fill="none" xmlns="http://www.w3.org/2000/svg">
<path fill-rule="evenodd" clip-rule="evenodd" d="M0 32C0 14.3269 14.3269 0 32 0C49.6731 0 64 14.3269 64 32C64 49.6731 49.6731 64 32 64C14.3269 64 0 49.6731 0 32ZM32 3.04762C16.01 3.04762 3.04762 16.01 3.04762 32C3.04762 47.99 16.01 60.9524 32 60.9524C47.99 60.9524 60.9524 47.99 60.9524 32C60.9524 16.01 47.99 3.04762 32 3.04762Z" fill="#D7A3E5"/>
<path d="M38.8052 39.076V42.666H28.7223V39.076H32.1836V25.3684C32.0499 25.6057 31.8241 25.8728 31.5064 26.1695C31.2054 26.4464 30.8543 26.7233 30.453 27.0002C30.0684 27.2574 29.6671 27.475 29.2491 27.653C28.8478 27.831 28.4799 27.92 28.1455 27.92V24.2409C28.5969 24.2409 29.0568 24.1025 29.525 23.8255C29.9932 23.5486 30.4279 23.2321 30.8292 22.8761C31.2305 22.5201 31.5482 22.1937 31.7823 21.897C32.0331 21.5805 32.1669 21.4124 32.1836 21.3926H35.6198V39.076H38.8052Z" fill="#D7A3E5"/>
<path d="M40.3912 42.666C40.3912 41.4595 40.4581 40.4012 40.5919 39.4913C40.7257 38.5617 40.9347 37.7408 41.2189 37.0287C41.5199 36.2969 41.9045 35.654 42.3727 35.1002C42.8409 34.5463 43.4178 34.0222 44.1033 33.5277C44.6886 33.1321 45.2905 32.7463 45.9092 32.3705C46.5446 31.9947 47.1299 31.5991 47.6649 31.1837C48.2167 30.7683 48.6598 30.2936 48.9943 29.7596C49.3454 29.2255 49.521 28.5728 49.521 27.8013C49.521 27.2079 49.4123 26.7035 49.1949 26.2882C48.9943 25.853 48.6933 25.5167 48.292 25.2794C47.9074 25.042 47.4392 24.9233 46.8874 24.9233C46.252 24.9233 45.6584 25.0618 45.1066 25.3387C44.5715 25.5959 44.0866 25.9222 43.6519 26.3178C43.2338 26.6936 42.8743 27.0695 42.5733 27.4453L40.4665 24.8343C40.7006 24.5178 41.0183 24.1618 41.4196 23.7662C41.8376 23.3706 42.3309 22.9849 42.8994 22.6091C43.4846 22.2332 44.1451 21.9267 44.8809 21.6893C45.6166 21.4519 46.4276 21.3333 47.3138 21.3333C48.618 21.3333 49.7133 21.6102 50.5995 22.164C51.4857 22.6981 52.1546 23.4398 52.606 24.3893C53.0742 25.3189 53.3083 26.3969 53.3083 27.6233C53.3083 28.5134 53.1829 29.3046 52.9321 29.9969C52.698 30.6694 52.3719 31.2628 51.9539 31.7771C51.5359 32.2914 51.0677 32.7562 50.5493 33.1716C50.031 33.5672 49.4959 33.9529 48.9441 34.3287C48.0746 34.8826 47.3723 35.3672 46.8372 35.7826C46.3022 36.198 45.8758 36.5837 45.5581 36.9397C45.2571 37.2958 45.023 37.6518 44.8558 38.0078C44.7053 38.3441 44.5715 38.7001 44.4545 39.076H53.3334V42.666H40.3912Z" fill="#D7A3E5"/>
<path d="M22.279 27.2816C22.165 27.1466 21.9531 26.9635 21.6434 26.7321C21.3501 26.5008 20.9834 26.2791 20.5433 26.067C20.1196 25.8549 19.6551 25.6718 19.1498 25.5175C18.6446 25.344 18.1312 25.2573 17.6097 25.2573C16.697 25.2573 16.0043 25.4597 15.5317 25.8646C15.0753 26.2694 14.8472 26.8382 14.8472 27.5708C14.8472 28.1299 14.9939 28.5733 15.2872 28.9011C15.5806 29.2288 16.0206 29.5084 16.6074 29.7397C17.1941 29.9711 17.9275 30.2217 18.8076 30.4916C19.9484 30.8194 20.9345 31.2242 21.7657 31.7062C22.6131 32.1689 23.2569 32.7859 23.697 33.5571C24.1533 34.309 24.3815 35.3115 24.3815 36.5646C24.3815 37.6636 24.2103 38.6083 23.8681 39.3987C23.5258 40.1699 23.0532 40.7965 22.4502 41.2785C21.8471 41.7605 21.1626 42.1171 20.3966 42.3485C19.6306 42.5605 18.8157 42.6666 17.9519 42.6666C17.0881 42.6666 16.2243 42.5605 15.3606 42.3485C14.4968 42.1364 13.6656 41.8376 12.867 41.452C12.0684 41.0471 11.335 40.5651 10.6667 40.006L12.158 36.5646C12.3047 36.7382 12.5655 36.9695 12.9403 37.2587C13.3152 37.5286 13.7715 37.8082 14.3093 38.0974C14.8472 38.3673 15.4339 38.5986 16.0695 38.7914C16.7051 38.9842 17.3489 39.0806 18.0008 39.0806C18.9135 39.0806 19.6062 38.8975 20.0788 38.5311C20.5515 38.1648 20.7878 37.6443 20.7878 36.9695C20.7878 36.3526 20.6003 35.8706 20.2255 35.5236C19.8506 35.1765 19.3291 34.8777 18.6609 34.6271C17.9927 34.3572 17.2022 34.068 16.2895 33.7595C15.1976 33.3932 14.2849 32.9883 13.5515 32.5449C12.8181 32.0822 12.2721 31.5038 11.9135 30.8097C11.555 30.1157 11.3757 29.2481 11.3757 28.207C11.3757 26.7996 11.6528 25.6236 12.2069 24.6789C12.7773 23.7149 13.5433 22.9919 14.5049 22.5099C15.4665 22.0087 16.534 21.758 17.7075 21.758C18.5224 21.758 19.2884 21.8641 20.0055 22.0762C20.7389 22.2882 21.4234 22.5678 22.059 22.9148C22.6946 23.2618 23.2651 23.6378 23.7703 24.0427L22.279 27.2816Z" fill="#D7A3E5"/>
</svg>
