<svg width="64" height="64" viewBox="0 0 64 64" fill="none" xmlns="http://www.w3.org/2000/svg">
<path fill-rule="evenodd" clip-rule="evenodd" d="M0 32C0 14.3269 14.3269 0 32 0C49.6731 0 64 14.3269 64 32C64 49.6731 49.6731 64 32 64C14.3269 64 0 49.6731 0 32ZM32 3.04762C16.01 3.04762 3.04762 16.01 3.04762 32C3.04762 47.99 16.01 60.9524 32 60.9524C47.99 60.9524 60.9524 47.99 60.9524 32C60.9524 16.01 47.99 3.04762 32 3.04762Z" fill="#D7A3E5"/>
<path d="M39.0892 38.9053V42.4609H28.9046V38.9053H32.4008V25.3296C32.2657 25.5647 32.0377 25.8291 31.7168 26.123C31.4128 26.3972 31.0581 26.6715 30.6527 26.9457C30.2642 27.2004 29.8589 27.4159 29.4366 27.5922C29.0313 27.7685 28.6597 27.8567 28.3219 27.8567V24.213C28.7779 24.213 29.2424 24.0758 29.7153 23.8016C30.1882 23.5273 30.6274 23.2139 31.0327 22.8613C31.4381 22.5086 31.759 22.1854 31.9955 21.8916C32.2488 21.5781 32.3839 21.4116 32.4008 21.392H35.8717V38.9053H39.0892Z" fill="#D7A3E5"/>
<path d="M46.5437 42.6666C45.5809 42.6666 44.7027 42.5295 43.9088 42.2552C43.1319 41.9614 42.4478 41.55 41.8567 41.021C41.2824 40.4725 40.8264 39.8261 40.4886 39.0816L42.3127 36.4076C42.4816 36.8386 42.7519 37.2598 43.1234 37.6712C43.495 38.0826 43.9595 38.4156 44.5169 38.6703C45.0742 38.9249 45.7076 39.0523 46.417 39.0523C47.1095 39.0523 47.7091 38.9347 48.2158 38.6996C48.7225 38.4646 49.1109 38.1413 49.3812 37.7299C49.6683 37.299 49.8119 36.7798 49.8119 36.1726C49.8119 35.5261 49.6345 34.9776 49.2798 34.527C48.942 34.0764 48.4353 33.7336 47.7597 33.4985C47.0841 33.2635 46.2565 33.1459 45.2769 33.1459H44.4409V30.2074H45.3276C46.5437 30.2074 47.5148 29.9626 48.2411 29.4728C48.9843 28.9831 49.3558 28.2876 49.3558 27.3865C49.3558 26.838 49.2292 26.3678 48.9758 25.976C48.7225 25.5647 48.3847 25.261 47.9624 25.0651C47.5402 24.8496 47.0757 24.7419 46.569 24.7419C45.7245 24.7419 44.9729 24.977 44.3142 25.4471C43.6724 25.8977 43.1826 26.4854 42.8448 27.2102L40.6406 24.3599C41.0122 23.733 41.5189 23.2041 42.1607 22.7731C42.8025 22.3225 43.5204 21.9699 44.3142 21.7153C45.1249 21.4606 45.9609 21.3333 46.8223 21.3333C48.0215 21.3333 49.0856 21.5781 50.0145 22.0679C50.9435 22.538 51.6698 23.1845 52.1933 24.0073C52.7169 24.83 52.9787 25.7704 52.9787 26.8282C52.9787 27.6118 52.8352 28.3268 52.548 28.9733C52.2778 29.6198 51.8893 30.1585 51.3826 30.5895C50.8759 31.0204 50.2763 31.3339 49.5838 31.5298C50.327 31.6669 50.9773 31.9901 51.5346 32.4995C52.1089 32.9892 52.548 33.6161 52.8521 34.3801C53.173 35.1245 53.3334 35.9375 53.3334 36.819C53.3334 38.0532 53.0294 39.1012 52.4214 39.9632C51.8302 40.8251 51.0195 41.4912 49.9892 41.9614C48.9758 42.4315 47.8273 42.6666 46.5437 42.6666Z" fill="#D7A3E5"/>
<path d="M22.3963 27.116C22.281 26.9824 22.067 26.801 21.7542 26.5718C21.4579 26.3427 21.0875 26.1231 20.643 25.9131C20.215 25.7031 19.7458 25.5217 19.2355 25.3689C18.7251 25.1971 18.2066 25.1111 17.6798 25.1111C16.7579 25.1111 16.0582 25.3116 15.5808 25.7126C15.1198 26.1136 14.8894 26.6769 14.8894 27.4024C14.8894 27.9562 15.0375 28.3953 15.3339 28.7199C15.6302 29.0445 16.0747 29.3214 16.6673 29.5505C17.26 29.7796 18.0008 30.0279 18.8898 30.2952C20.0421 30.6198 21.0381 31.0207 21.8777 31.4981C22.7337 31.9564 23.384 32.5674 23.8285 33.3311C24.2894 34.0758 24.5199 35.0687 24.5199 36.3098C24.5199 37.3981 24.3471 38.3338 24.0013 39.1166C23.6556 39.8804 23.1782 40.5009 22.5691 40.9783C21.96 41.4556 21.2686 41.8089 20.4948 42.038C19.7211 42.248 18.898 42.353 18.0255 42.353C17.153 42.353 16.2805 42.248 15.4079 42.038C14.5354 41.828 13.6958 41.532 12.8892 41.1501C12.0825 40.7491 11.3417 40.2718 10.6667 39.7181L12.1731 36.3098C12.3212 36.4816 12.5846 36.7108 12.9633 36.9972C13.3419 37.2645 13.8028 37.5414 14.3461 37.8278C14.8894 38.0951 15.482 38.3242 16.1241 38.5151C16.7661 38.7061 17.4164 38.8016 18.0749 38.8016C18.9968 38.8016 19.6964 38.6202 20.1738 38.2574C20.6512 37.8946 20.8899 37.3791 20.8899 36.7108C20.8899 36.0998 20.7006 35.6224 20.322 35.2787C19.9434 34.935 19.4166 34.6391 18.7416 34.3908C18.0666 34.1235 17.2682 33.8371 16.3463 33.5316C15.2433 33.1688 14.3214 32.7678 13.5806 32.3287C12.8398 31.8704 12.2883 31.2976 11.9261 30.6102C11.564 29.9228 11.3829 29.0636 11.3829 28.0325C11.3829 26.6387 11.6627 25.4739 12.2225 24.5383C12.7986 23.5836 13.5724 22.8676 14.5437 22.3902C15.5149 21.8938 16.5932 21.6456 17.7785 21.6456C18.6017 21.6456 19.3754 21.7506 20.0997 21.9606C20.8406 22.1707 21.532 22.4475 22.174 22.7912C22.8161 23.1349 23.3922 23.5072 23.9026 23.9082L22.3963 27.116Z" fill="#D7A3E5"/>
</svg>
