<svg width="64" height="64" viewBox="0 0 64 64" fill="none" xmlns="http://www.w3.org/2000/svg">
<path fill-rule="evenodd" clip-rule="evenodd" d="M0 32C0 14.3269 14.3269 0 32 0C49.6731 0 64 14.3269 64 32C64 49.6731 49.6731 64 32 64C14.3269 64 0 49.6731 0 32ZM32 3.04762C16.01 3.04762 3.04762 16.01 3.04762 32C3.04762 47.99 16.01 60.9524 32 60.9524C47.99 60.9524 60.9524 47.99 60.9524 32C60.9524 16.01 47.99 3.04762 32 3.04762Z" fill="#D7A3E5"/>
<path d="M38.9716 39.0655V42.6655H28.8291V39.0655H32.3109V25.32C32.1763 25.5581 31.9492 25.8258 31.6297 26.1233C31.3269 26.401 30.9737 26.6787 30.57 26.9564C30.1831 27.2143 29.7794 27.4324 29.3589 27.611C28.9553 27.7895 28.5852 27.8787 28.2488 27.8787V24.1895C28.703 24.1895 29.1655 24.0506 29.6365 23.7729C30.1074 23.4952 30.5448 23.1779 30.9484 22.8209C31.3521 22.4638 31.6717 22.1366 31.9072 21.839C32.1595 21.5217 32.294 21.3531 32.3109 21.3333H35.7674V39.0655H38.9716Z" fill="#D7A3E5"/>
<path d="M47.7323 42.6655V37.8754H40.1886V34.3052L48.792 21.5415H51.1132V34.2754H53.3334V37.8754H51.1132V42.6655H47.7323ZM43.5946 34.2754H48.1108V27.5514L43.5946 34.2754Z" fill="#D7A3E5"/>
<path d="M22.3477 27.2391C22.2329 27.1037 22.0198 26.9201 21.7083 26.6881C21.4132 26.4561 21.0444 26.2338 20.6017 26.0211C20.1755 25.8084 19.7082 25.6248 19.2 25.4701C18.6918 25.2961 18.1754 25.2091 17.6507 25.2091C16.7326 25.2091 16.0359 25.4121 15.5605 25.8181C15.1014 26.2241 14.8719 26.7944 14.8719 27.529C14.8719 28.0897 15.0194 28.5343 15.3145 28.863C15.6096 29.1917 16.0523 29.472 16.6425 29.704C17.2327 29.936 17.9704 30.1873 18.8557 30.458C20.0033 30.7866 20.9952 31.1926 21.8313 31.6759C22.6838 32.1399 23.3314 32.7586 23.774 33.5319C24.2331 34.2858 24.4626 35.2911 24.4626 36.5478C24.4626 37.6497 24.2904 38.597 23.9462 39.3897C23.6019 40.163 23.1264 40.7913 22.5198 41.2746C21.9133 41.7579 21.2247 42.1156 20.4542 42.3476C19.6836 42.5603 18.8639 42.6666 17.995 42.6666C17.1261 42.6666 16.2572 42.5603 15.3883 42.3476C14.5194 42.1349 13.6833 41.8353 12.88 41.4486C12.0767 41.0426 11.3389 40.5593 10.6667 39.9987L12.1668 36.5478C12.3144 36.7218 12.5767 36.9538 12.9538 37.2437C13.3308 37.5144 13.7899 37.7947 14.3309 38.0847C14.8719 38.3554 15.4621 38.5874 16.1015 38.7807C16.7408 38.974 17.3884 39.0707 18.0442 39.0707C18.9623 39.0707 19.659 38.887 20.1345 38.5197C20.6099 38.1524 20.8476 37.6304 20.8476 36.9538C20.8476 36.3351 20.6591 35.8518 20.282 35.5038C19.905 35.1558 19.3803 34.8562 18.7082 34.6048C18.036 34.3342 17.2409 34.0442 16.3228 33.7349C15.2244 33.3675 14.3063 32.9615 13.5685 32.5169C12.8308 32.0529 12.2816 31.4729 11.9209 30.7769C11.5602 30.081 11.3799 29.211 11.3799 28.167C11.3799 26.7557 11.6586 25.5764 12.216 24.6291C12.7898 23.6625 13.5603 22.9375 14.5276 22.4542C15.4949 21.9516 16.5687 21.7002 17.7491 21.7002C18.5688 21.7002 19.3393 21.8066 20.0607 22.0192C20.7984 22.2319 21.487 22.5122 22.1264 22.8602C22.7658 23.2082 23.3396 23.5852 23.8478 23.9912L22.3477 27.2391Z" fill="#D7A3E5"/>
</svg>
