<svg width="64" height="64" viewBox="0 0 64 64" fill="none" xmlns="http://www.w3.org/2000/svg">
<path fill-rule="evenodd" clip-rule="evenodd" d="M0 32C0 14.3269 14.3269 0 32 0C49.6731 0 64 14.3269 64 32C64 49.6731 49.6731 64 32 64C14.3269 64 0 49.6731 0 32ZM32 3.04762C16.01 3.04762 3.04762 16.01 3.04762 32C3.04762 47.99 16.01 60.9524 32 60.9524C47.99 60.9524 60.9524 47.99 60.9524 32C60.9524 16.01 47.99 3.04762 32 3.04762Z" fill="#D7A3E5"/>
<path d="M39.4574 38.8225V42.3731H29.3746V38.8225H32.8358V25.2654C32.7021 25.5001 32.4763 25.7642 32.1586 26.0577C31.8577 26.3316 31.5065 26.6055 31.1052 26.8793C30.7206 27.1336 30.3193 27.3488 29.9013 27.5249C29.5 27.701 29.1321 27.789 28.7977 27.789V24.1503C29.2492 24.1503 29.709 24.0134 30.1772 23.7395C30.6454 23.4656 31.0801 23.1526 31.4814 22.8005C31.8827 22.4483 32.2004 22.1255 32.4345 21.8321C32.6853 21.5191 32.8191 21.3528 32.8358 21.3333H36.272V38.8225H39.4574Z" fill="#D7A3E5"/>
<path d="M46.762 42.6666C45.4745 42.6666 44.3124 42.3438 43.2757 41.6982C42.2557 41.0331 41.4698 40.143 40.918 39.0279L42.8493 36.6803C43.3342 37.4433 43.9194 38.0497 44.605 38.4997C45.3073 38.9496 46.0347 39.1746 46.7871 39.1746C47.3891 39.1746 47.9241 39.0279 48.3923 38.7344C48.8605 38.441 49.22 38.0302 49.4708 37.502C49.7384 36.9738 49.8722 36.3673 49.8722 35.6826C49.8722 35.0175 49.7467 34.4306 49.4959 33.922C49.2451 33.3938 48.9023 32.9927 48.4676 32.7189C48.0328 32.4254 47.5396 32.2787 46.9878 32.2787C46.4527 32.2787 45.9427 32.4254 45.4578 32.7189C44.9729 32.9927 44.5883 33.3938 44.304 33.922H41.3695L43.4262 21.5387H52.2047V25.1187H45.8591L45.1568 29.7844C45.3575 29.5301 45.6501 29.3247 46.0347 29.1682C46.4192 28.9921 46.8958 28.9041 47.4643 28.9041C48.5846 28.9041 49.5879 29.1975 50.4741 29.7844C51.3603 30.3517 52.0542 31.1343 52.5559 32.132C53.0742 33.1297 53.3334 34.2839 53.3334 35.5946C53.3334 36.9836 53.0408 38.216 52.4556 39.292C51.887 40.3484 51.1095 41.1798 50.123 41.7863C49.1531 42.3731 48.0328 42.6666 46.762 42.6666Z" fill="#D7A3E5"/>
<path d="M22.279 26.7962C22.1649 26.6627 21.953 26.4815 21.6434 26.2527C21.35 26.0239 20.9833 25.8046 20.5433 25.5949C20.1195 25.3852 19.655 25.204 19.1498 25.0515C18.6446 24.8799 18.1312 24.794 17.6096 24.794C16.697 24.794 16.0043 24.9943 15.5317 25.3947C15.0753 25.7951 14.8472 26.3576 14.8472 27.0822C14.8472 27.6351 14.9938 28.0737 15.2872 28.3979C15.5806 28.722 16.0206 28.9985 16.6073 29.2273C17.1941 29.4561 17.9275 29.704 18.8075 29.9709C19.9484 30.2951 20.9344 30.6955 21.7656 31.1722C22.6131 31.6298 23.2569 32.24 23.6969 33.0027C24.1532 33.7464 24.3814 34.7379 24.3814 35.9773C24.3814 37.0642 24.2103 37.9985 23.868 38.7802C23.5258 39.543 23.0531 40.1627 22.4501 40.6394C21.8471 41.1161 21.1626 41.4688 20.3966 41.6976C19.6306 41.9074 18.8157 42.0122 17.9519 42.0122C17.0881 42.0122 16.2243 41.9074 15.3605 41.6976C14.4968 41.4879 13.6656 41.1923 12.867 40.811C12.0684 40.4105 11.335 39.9338 10.6667 39.3809L12.158 35.9773C12.3047 36.1489 12.5655 36.3777 12.9403 36.6637C13.3152 36.9307 13.7715 37.2072 14.3093 37.4932C14.8472 37.7601 15.4339 37.9889 16.0695 38.1796C16.7051 38.3703 17.3489 38.4656 18.0008 38.4656C18.9135 38.4656 19.6061 38.2845 20.0788 37.9222C20.5514 37.5599 20.7877 37.0451 20.7877 36.3777C20.7877 35.7675 20.6003 35.2908 20.2255 34.9476C19.8506 34.6044 19.3291 34.3089 18.6609 34.061C17.9926 33.794 17.2022 33.508 16.2895 33.2029C15.1976 32.8406 14.2849 32.4402 13.5515 32.0017C12.8181 31.544 12.2721 30.972 11.9135 30.2856C11.555 29.5991 11.3757 28.7411 11.3757 27.7114C11.3757 26.3195 11.6528 25.1563 12.2069 24.222C12.7773 23.2686 13.5433 22.5536 14.5049 22.0769C15.4665 21.5811 16.534 21.3333 17.7074 21.3333C18.5223 21.3333 19.2883 21.4381 20.0054 21.6479C20.7388 21.8576 21.4234 22.1341 22.059 22.4773C22.6946 22.8205 23.265 23.1924 23.7702 23.5928L22.279 26.7962Z" fill="#D7A3E5"/>
</svg>
