<svg width="64" height="64" viewBox="0 0 64 64" fill="none" xmlns="http://www.w3.org/2000/svg">
<path fill-rule="evenodd" clip-rule="evenodd" d="M0 32C0 14.3269 14.3269 0 32 0C49.6731 0 64 14.3269 64 32C64 49.6731 49.6731 64 32 64C14.3269 64 0 49.6731 0 32ZM32 3.04762C16.01 3.04762 3.04762 16.01 3.04762 32C3.04762 47.99 16.01 60.9524 32 60.9524C47.99 60.9524 60.9524 47.99 60.9524 32C60.9524 16.01 47.99 3.04762 32 3.04762Z" fill="#D7A3E5"/>
<path d="M28.2301 26.3492C28.0725 26.1927 27.7799 25.9803 27.3521 25.712C26.9469 25.4437 26.4404 25.1866 25.8326 24.9406C25.2473 24.6947 24.6057 24.4823 23.9078 24.3034C23.21 24.1022 22.5008 24.0016 21.7805 24.0016C20.5198 24.0016 19.5631 24.2364 18.9102 24.7059C18.2799 25.1754 17.9647 25.8349 17.9647 26.6845C17.9647 27.3329 18.1673 27.8471 18.5725 28.2272C18.9777 28.6073 19.5856 28.9315 20.396 29.1998C21.2064 29.468 22.2194 29.7587 23.4351 30.0717C25.0109 30.4518 26.3729 30.9213 27.521 31.4802C28.6916 32.0168 29.5808 32.7323 30.1886 33.6266C30.819 34.4985 31.1341 35.6611 31.1341 37.1143C31.1341 38.3887 30.8978 39.4842 30.425 40.4009C29.9523 41.2952 29.2994 42.0218 28.4665 42.5808C27.6335 43.1397 26.688 43.5533 25.63 43.8216C24.5719 44.0676 23.4463 44.1905 22.2532 44.1905C21.0601 44.1905 19.867 44.0676 18.6738 43.8216C17.4807 43.5757 16.3326 43.2291 15.2295 42.782C14.1264 42.3125 13.1134 41.7535 12.1904 41.1052L14.2503 37.1143C14.4529 37.3156 14.8131 37.5839 15.3308 37.9192C15.8486 38.2322 16.4789 38.5564 17.2218 38.8918C17.9647 39.2048 18.7751 39.4731 19.6531 39.6966C20.5311 39.9202 21.4203 40.032 22.3208 40.032C23.5814 40.032 24.5382 39.8196 25.191 39.3948C25.8439 38.97 26.1703 38.3664 26.1703 37.5839C26.1703 36.8684 25.9114 36.3095 25.3936 35.907C24.8758 35.5046 24.1555 35.1581 23.2325 34.8674C22.3095 34.5544 21.2177 34.219 19.957 33.8613C18.4487 33.4365 17.1881 32.967 16.175 32.4528C15.162 31.9162 14.4078 31.2455 13.9126 30.4406C13.4173 29.6357 13.1697 28.6296 13.1697 27.4223C13.1697 25.7902 13.5524 24.4264 14.3178 23.3309C15.1057 22.213 16.1638 21.3746 17.492 20.8157C18.8202 20.2344 20.2947 19.9437 21.9155 19.9437C23.0411 19.9437 24.0992 20.0667 25.0897 20.3126C26.1027 20.5585 27.0482 20.8827 27.9262 21.2852C28.8042 21.6876 29.5921 22.1236 30.2899 22.5931L28.2301 26.3492Z" fill="#D7A3E5"/>
<path d="M34.3853 43.9222C34.3853 42.5584 34.4754 41.3623 34.6555 40.3338C34.8356 39.283 35.117 38.3552 35.4997 37.5503C35.9049 36.7231 36.4226 35.9965 37.053 35.3705C37.6833 34.7444 38.46 34.152 39.383 33.593C40.1709 33.1459 40.9813 32.7099 41.8142 32.2851C42.6697 31.8603 43.4576 31.4132 44.178 30.9436C44.9209 30.4741 45.5174 29.9376 45.9677 29.3339C46.4404 28.7302 46.6768 27.9924 46.6768 27.1205C46.6768 26.4498 46.5305 25.8797 46.2378 25.4101C45.9677 24.9183 45.5625 24.5382 45.0222 24.2699C44.5044 24.0016 43.8741 23.8675 43.1312 23.8675C42.2757 23.8675 41.4766 24.024 40.7337 24.337C40.0133 24.6276 39.3604 24.9965 38.7751 25.4437C38.2123 25.8685 37.7283 26.2933 37.3231 26.7181L34.4866 23.7669C34.8018 23.4091 35.2295 23.0067 35.7698 22.5596C36.3326 22.1124 36.9967 21.6764 37.7621 21.2516C38.55 20.8268 39.4392 20.4803 40.4298 20.212C41.4203 19.9437 42.5121 19.8096 43.7052 19.8096C45.4611 19.8096 46.9357 20.1226 48.1288 20.7486C49.3219 21.3522 50.2224 22.1907 50.8302 23.2638C51.4605 24.3146 51.7757 25.5331 51.7757 26.9193C51.7757 27.9254 51.6069 28.8197 51.2692 29.6022C50.954 30.3624 50.515 31.0331 49.9523 31.6144C49.3895 32.1957 48.7591 32.7211 48.0613 33.1906C47.3634 33.6377 46.643 34.0737 45.9001 34.4985C44.7295 35.1245 43.784 35.6723 43.0636 36.1418C42.3433 36.6113 41.7692 37.0473 41.3415 37.4497C40.9363 37.8521 40.6211 38.2546 40.396 38.657C40.1934 39.0371 40.0133 39.4395 39.8557 39.8643H51.8095V43.9222H34.3853Z" fill="#D7A3E5"/>
</svg>
