<svg width="64" height="64" viewBox="0 0 64 64" fill="none" xmlns="http://www.w3.org/2000/svg">
<path fill-rule="evenodd" clip-rule="evenodd" d="M0 32C0 14.3269 14.3269 0 32 0C49.6731 0 64 14.3269 64 32C64 49.6731 49.6731 64 32 64C14.3269 64 0 49.6731 0 32ZM32 3.04762C16.01 3.04762 3.04762 16.01 3.04762 32C3.04762 47.99 16.01 60.9524 32 60.9524C47.99 60.9524 60.9524 47.99 60.9524 32C60.9524 16.01 47.99 3.04762 32 3.04762Z" fill="#D7A3E5"/>
<path d="M28.4659 26.3492C28.306 26.1927 28.0091 25.9803 27.5751 25.712C27.1639 25.4437 26.6499 25.1866 26.0332 24.9406C25.4393 24.6947 24.7882 24.4823 24.0801 24.3034C23.372 24.1022 22.6524 24.0016 21.9215 24.0016C20.6423 24.0016 19.6714 24.2364 19.009 24.7059C18.3694 25.1754 18.0496 25.8349 18.0496 26.6845C18.0496 27.3329 18.2552 27.8471 18.6664 28.2272C19.0775 28.6073 19.6943 28.9315 20.5166 29.1998C21.339 29.468 22.3669 29.7587 23.6004 30.0717C25.1994 30.4518 26.5814 30.9213 27.7464 31.4802C28.9342 32.0168 29.8365 32.7323 30.4532 33.6266C31.0928 34.4985 31.4126 35.6611 31.4126 37.1143C31.4126 38.3887 31.1728 39.4842 30.6931 40.4009C30.2134 41.2952 29.551 42.0218 28.7058 42.5808C27.8606 43.1397 26.9012 43.5533 25.8276 43.8216C24.754 44.0676 23.6118 44.1905 22.4012 44.1905C21.1905 44.1905 19.9798 44.0676 18.7692 43.8216C17.5585 43.5757 16.3935 43.2291 15.2742 42.782C14.1549 42.3125 13.127 41.7535 12.1904 41.1052L14.2805 37.1143C14.4861 37.3156 14.8516 37.5839 15.377 37.9192C15.9024 38.2322 16.542 38.5564 17.2958 38.8918C18.0496 39.2048 18.8719 39.4731 19.7628 39.6966C20.6537 39.9202 21.556 40.032 22.4697 40.032C23.7489 40.032 24.7197 39.8196 25.3821 39.3948C26.0446 38.97 26.3758 38.3664 26.3758 37.5839C26.3758 36.8684 26.1131 36.3095 25.5877 35.907C25.0623 35.5046 24.3314 35.1581 23.3948 34.8674C22.4583 34.5544 21.3504 34.219 20.0712 33.8613C18.5407 33.4365 17.2615 32.967 16.2336 32.4528C15.2057 31.9162 14.4404 31.2455 13.9379 30.4406C13.4354 29.6357 13.1841 28.6296 13.1841 27.4223C13.1841 25.7902 13.5724 24.4264 14.3491 23.3309C15.1486 22.213 16.2222 21.3746 17.5699 20.8157C18.9176 20.2344 20.4138 19.9437 22.0585 19.9437C23.2007 19.9437 24.2743 20.0667 25.2794 20.3126C26.3073 20.5585 27.2667 20.8827 28.1575 21.2852C29.0484 21.6876 29.8479 22.1236 30.556 22.5931L28.4659 26.3492Z" fill="#D7A3E5"/>
<path d="M42.6267 44.157C41.3246 44.157 40.1368 44.0005 39.0632 43.6875C38.0124 43.3521 37.0873 42.8826 36.2878 42.2789C35.5111 41.6529 34.8944 40.9151 34.4375 40.0655L36.9046 37.0137C37.133 37.5056 37.4985 37.9863 38.001 38.4558C38.5035 38.9253 39.1317 39.3054 39.8855 39.596C40.6393 39.8867 41.496 40.032 42.4554 40.032C43.3919 40.032 44.2028 39.8979 44.8881 39.6296C45.5734 39.3613 46.0988 38.9924 46.4643 38.5229C46.8526 38.031 47.0468 37.4385 47.0468 36.7454C47.0468 36.0076 46.8069 35.3816 46.3272 34.8674C45.8703 34.3532 45.1851 33.9619 44.2714 33.6936C43.3576 33.4253 42.2383 33.2912 40.9135 33.2912H39.7827V29.9376H40.982C42.6267 29.9376 43.9401 29.6581 44.9224 29.0991C45.9275 28.5402 46.43 27.7465 46.43 26.7181C46.43 26.0921 46.2587 25.5555 45.916 25.1083C45.5734 24.6388 45.1165 24.2923 44.5455 24.0687C43.9744 23.8228 43.3462 23.6998 42.6609 23.6998C41.5188 23.6998 40.5023 23.9681 39.6114 24.5047C38.7434 25.0189 38.081 25.6896 37.6241 26.5168L34.6431 23.2638C35.1457 22.5484 35.8309 21.9447 36.699 21.4529C37.567 20.9386 38.5378 20.5362 39.6114 20.2455C40.7079 19.9549 41.8386 19.8096 43.0036 19.8096C44.6254 19.8096 46.0645 20.089 47.3209 20.648C48.5772 21.1846 49.5595 21.9224 50.2676 22.8614C50.9757 23.8004 51.3298 24.8736 51.3298 26.0809C51.3298 26.9752 51.1356 27.7912 50.7473 28.529C50.3818 29.2668 49.8564 29.8817 49.1711 30.3735C48.4859 30.8654 47.6749 31.2231 46.7384 31.4467C47.7435 31.6032 48.6229 31.9721 49.3767 32.5534C50.1534 33.1123 50.7473 33.8278 51.1585 34.6997C51.5925 35.5493 51.8095 36.4772 51.8095 37.4832C51.8095 38.8918 51.3983 40.0879 50.576 41.0716C49.7765 42.0554 48.68 42.8155 47.2866 43.3521C45.916 43.8887 44.3627 44.157 42.6267 44.157Z" fill="#D7A3E5"/>
</svg>
