<svg width="64" height="64" viewBox="0 0 64 64" fill="none" xmlns="http://www.w3.org/2000/svg">
<path fill-rule="evenodd" clip-rule="evenodd" d="M0 32C0 14.3269 14.3269 0 32 0C49.6731 0 64 14.3269 64 32C64 49.6731 49.6731 64 32 64C14.3269 64 0 49.6731 0 32ZM32 3.04762C16.01 3.04762 3.04762 16.01 3.04762 32C3.04762 47.99 16.01 60.9524 32 60.9524C47.99 60.9524 60.9524 47.99 60.9524 32C60.9524 16.01 47.99 3.04762 32 3.04762Z" fill="#D7A3E5"/>
<path d="M28.368 26.2505C28.209 26.0931 27.9139 25.8795 27.4825 25.6097C27.0738 25.34 26.5629 25.0814 25.9499 24.8341C25.3595 24.5868 24.7124 24.3733 24.0086 24.1934C23.3047 23.9911 22.5895 23.8899 21.8629 23.8899C20.5914 23.8899 19.6264 24.126 18.968 24.5981C18.3322 25.0702 18.0143 25.7334 18.0143 26.5877C18.0143 27.2396 18.2187 27.7567 18.6274 28.1389C19.0361 28.5211 19.6491 28.847 20.4665 29.1168C21.2839 29.3866 22.3057 29.6789 23.5317 29.9936C25.1211 30.3758 26.4948 30.8479 27.6528 31.4099C28.8334 31.9495 29.7303 32.6689 30.3434 33.5681C30.9791 34.4449 31.297 35.6139 31.297 37.0752C31.297 38.3566 31.0586 39.4582 30.5818 40.3799C30.1049 41.2792 29.4465 42.0098 28.6064 42.5719C27.7663 43.1339 26.8127 43.5498 25.7455 43.8196C24.6784 44.0669 23.5431 44.1905 22.3397 44.1905C21.1363 44.1905 19.933 44.0669 18.7296 43.8196C17.5262 43.5723 16.3682 43.2238 15.2557 42.7742C14.1431 42.3021 13.1213 41.7401 12.1904 41.0881L14.268 37.0752C14.4723 37.2775 14.8356 37.5473 15.3578 37.8845C15.88 38.1993 16.5158 38.5252 17.2651 38.8625C18.0143 39.1772 18.8317 39.447 19.7173 39.6718C20.6028 39.8966 21.4996 40.009 22.4078 40.009C23.6793 40.009 24.6443 39.7954 25.3028 39.3683C25.9612 38.9411 26.2904 38.3341 26.2904 37.5473C26.2904 36.8279 26.0293 36.2659 25.5071 35.8612C24.9849 35.4565 24.2583 35.1081 23.3274 34.8158C22.3965 34.5011 21.2953 34.1639 20.0238 33.8042C18.5025 33.377 17.231 32.9049 16.2093 32.3878C15.1875 31.8483 14.4269 31.1739 13.9274 30.3645C13.4279 29.5552 13.1781 28.5435 13.1781 27.3296C13.1781 25.6884 13.5641 24.3171 14.3361 23.2155C15.1308 22.0914 16.1979 21.2484 17.5375 20.6863C18.8772 20.1018 20.3644 19.8096 21.9991 19.8096C23.1344 19.8096 24.2016 19.9332 25.2006 20.1805C26.2223 20.4278 27.176 20.7538 28.0615 21.1584C28.947 21.5631 29.7417 22.0015 30.4455 22.4736L28.368 26.2505Z" fill="#D7A3E5"/>
<path d="M44.2486 43.9207V38.4915H34.0653V34.4449L45.679 19.9782H48.8124V34.4112H51.8095V38.4915H48.8124V43.9207H44.2486ZM38.6631 34.4112H44.7595V26.79L38.6631 34.4112Z" fill="#D7A3E5"/>
</svg>
