<svg width="64" height="64" viewBox="0 0 64 64" fill="none" xmlns="http://www.w3.org/2000/svg">
<path fill-rule="evenodd" clip-rule="evenodd" d="M0 32C0 14.3269 14.3269 0 32 0C49.6731 0 64 14.3269 64 32C64 49.6731 49.6731 64 32 64C14.3269 64 0 49.6731 0 32ZM32 3.04762C16.01 3.04762 3.04762 16.01 3.04762 32C3.04762 47.99 16.01 60.9524 32 60.9524C47.99 60.9524 60.9524 47.99 60.9524 32C60.9524 16.01 47.99 3.04762 32 3.04762Z" fill="#D7A3E5"/>
<path d="M28.5936 26.2327C28.4324 26.0758 28.1332 25.8628 27.6957 25.5937C27.2813 25.3247 26.7634 25.0669 26.1418 24.8203C25.5432 24.5737 24.8871 24.3607 24.1734 24.1813C23.4597 23.9796 22.7345 23.8787 21.9978 23.8787C20.7086 23.8787 19.7301 24.1141 19.0625 24.5849C18.4179 25.0557 18.0956 25.717 18.0956 26.569C18.0956 27.2191 18.3028 27.7348 18.7172 28.1159C19.1316 28.497 19.7532 28.8221 20.5819 29.0911C21.4107 29.3602 22.4467 29.6516 23.6899 29.9655C25.3015 30.3466 26.6943 30.8174 27.8684 31.3779C29.0655 31.916 29.9749 32.6334 30.5965 33.5302C31.2411 34.4045 31.5634 35.5703 31.5634 37.0276C31.5634 38.3055 31.3217 39.404 30.8382 40.3232C30.3548 41.22 29.6871 41.9486 28.8353 42.5091C27.9835 43.0696 27.0166 43.4843 25.9346 43.7533C24.8525 44 23.7014 44.1233 22.4813 44.1233C21.2611 44.1233 20.0409 44 18.8208 43.7533C17.6006 43.5067 16.4265 43.1592 15.2984 42.7108C14.1703 42.24 13.1343 41.6796 12.1904 41.0294L14.2969 37.0276C14.5041 37.2293 14.8725 37.4984 15.402 37.8347C15.9315 38.1485 16.5761 38.4736 17.3358 38.8099C18.0956 39.1238 18.9244 39.3928 19.8222 39.617C20.7201 39.8412 21.6294 39.9533 22.5503 39.9533C23.8396 39.9533 24.818 39.7403 25.4856 39.3143C26.1533 38.8884 26.4871 38.283 26.4871 37.4984C26.4871 36.781 26.2223 36.2205 25.6928 35.8169C25.1633 35.4134 24.4266 35.0659 23.4827 34.7744C22.5388 34.4606 21.4222 34.1243 20.133 33.7656C18.5905 33.3396 17.3013 32.8688 16.2653 32.3531C15.2293 31.8151 14.4581 31.1425 13.9516 30.3354C13.4451 29.5283 13.1919 28.5195 13.1919 27.3088C13.1919 25.6722 13.5833 24.3046 14.366 23.2061C15.1718 22.0851 16.2538 21.2444 17.6121 20.6839C18.9704 20.101 20.4783 19.8096 22.1359 19.8096C23.287 19.8096 24.3691 19.9329 25.382 20.1795C26.418 20.4261 27.3849 20.7512 28.2828 21.1547C29.1807 21.5583 29.9864 21.9954 30.7001 22.4663L28.5936 26.2327Z" fill="#D7A3E5"/>
<path d="M42.7618 44.1905C40.9891 44.1905 39.3891 43.8206 37.9618 43.0808C36.5574 42.3185 35.4754 41.2984 34.7157 40.0205L37.3747 37.3302C38.0423 38.2046 38.8481 38.8996 39.792 39.4152C40.7589 39.9309 41.7604 40.1887 42.7964 40.1887C43.6252 40.1887 44.3619 40.0205 45.0065 39.6843C45.6511 39.348 46.1461 38.8772 46.4914 38.2718C46.8598 37.6665 47.0439 36.9715 47.0439 36.1868C47.0439 35.4246 46.8713 34.752 46.5259 34.1691C46.1806 33.5638 45.7087 33.1042 45.1101 32.7903C44.5115 32.454 43.8324 32.2859 43.0726 32.2859C42.3359 32.2859 41.6338 32.454 40.9661 32.7903C40.2985 33.1042 39.769 33.5638 39.3776 34.1691H35.3372L38.1689 19.9777H50.2555V24.0804H41.5187L40.5517 29.4274C40.828 29.136 41.2309 28.9006 41.7604 28.7212C42.2899 28.5195 42.946 28.4186 43.7288 28.4186C45.2712 28.4186 46.6526 28.7549 47.8727 29.4274C49.0929 30.0776 50.0483 30.9744 50.739 32.1177C51.4526 33.2611 51.8095 34.5839 51.8095 36.086C51.8095 37.6777 51.4066 39.0901 50.6008 40.3232C49.8181 41.5338 48.7476 42.4867 47.3893 43.1817C46.054 43.8542 44.5115 44.1905 42.7618 44.1905Z" fill="#D7A3E5"/>
</svg>
