<svg width="64" height="64" viewBox="0 0 64 64" fill="none" xmlns="http://www.w3.org/2000/svg">
<path fill-rule="evenodd" clip-rule="evenodd" d="M0 32C0 14.3269 14.3269 0 32 0C49.6731 0 64 14.3269 64 32C64 49.6731 49.6731 64 32 64C14.3269 64 0 49.6731 0 32ZM32 3.04762C16.01 3.04762 3.04762 16.01 3.04762 32C3.04762 47.99 16.01 60.9524 32 60.9524C47.99 60.9524 60.9524 47.99 60.9524 32C60.9524 16.01 47.99 3.04762 32 3.04762Z" fill="#D7A3E5"/>
<path d="M28.1542 26.0701C27.9973 25.9172 27.7061 25.7096 27.2804 25.4473C26.8771 25.1851 26.373 24.9338 25.768 24.6935C25.1855 24.4531 24.5469 24.2455 23.8524 24.0707C23.1578 23.874 22.452 23.7757 21.7351 23.7757C20.4804 23.7757 19.5281 24.0051 18.8784 24.464C18.251 24.9229 17.9374 25.5675 17.9374 26.3979C17.9374 27.0316 18.139 27.5342 18.5423 27.9057C18.9456 28.2772 19.5506 28.594 20.3571 28.8562C21.1637 29.1185 22.172 29.4025 23.3819 29.7085C24.9502 30.0799 26.3057 30.5388 27.4484 31.0851C28.6135 31.6096 29.4985 32.3088 30.1034 33.1829C30.7308 34.0351 31.0444 35.1714 31.0444 36.5918C31.0444 37.8373 30.8092 38.9081 30.3387 39.804C29.8682 40.6781 29.2184 41.3883 28.3894 41.9346C27.5604 42.4809 26.6194 42.8851 25.5664 43.1473C24.5133 43.3877 23.3931 43.5079 22.2056 43.5079C21.0181 43.5079 19.8306 43.3877 18.6431 43.1473C17.4557 42.907 16.313 42.5683 15.2151 42.1312C14.1173 41.6723 13.109 41.126 12.1904 40.4923L14.2405 36.5918C14.4422 36.7884 14.8006 37.0507 15.316 37.3784C15.8313 37.6844 16.4586 38.0012 17.198 38.329C17.9374 38.6349 18.744 38.8972 19.6178 39.1157C20.4916 39.3342 21.3766 39.4434 22.2728 39.4434C23.5275 39.4434 24.4797 39.2359 25.1295 38.8207C25.7792 38.4055 26.1041 37.8155 26.1041 37.0507C26.1041 36.3514 25.8464 35.8051 25.3311 35.4118C24.8158 35.0184 24.0988 34.6797 23.1802 34.3957C22.2616 34.0897 21.1749 33.762 19.9202 33.4123C18.4191 32.9972 17.1644 32.5383 16.1562 32.0357C15.1479 31.5112 14.3973 30.8557 13.9044 30.069C13.4115 29.2823 13.1651 28.299 13.1651 27.119C13.1651 25.5238 13.5459 24.1909 14.3077 23.1201C15.0919 22.0275 16.145 21.2081 17.4669 20.6618C18.7888 20.0936 20.2563 19.8096 21.8695 19.8096C22.9898 19.8096 24.0428 19.9298 25.0286 20.1701C26.0369 20.4105 26.9779 20.7273 27.8517 21.1207C28.7255 21.514 29.5097 21.9401 30.2042 22.399L28.1542 26.0701Z" fill="#D7A3E5"/>
<path d="M51.8095 35.8842C51.8095 37.4311 51.4072 38.8323 50.6027 40.0878C49.8211 41.3433 48.7522 42.3409 47.396 43.0808C46.0627 43.8206 44.5456 44.1905 42.8445 44.1905C41.0056 44.1905 39.408 43.7533 38.0517 42.879C36.7185 42.0046 35.6841 40.7492 34.9485 39.1126C34.2129 37.476 33.8451 35.5143 33.8451 33.2275C33.8451 30.3354 34.2244 27.8917 34.983 25.8964C35.7645 23.8787 36.8679 22.3654 38.2931 21.3565C39.7183 20.3252 41.3963 19.8096 43.3273 19.8096C44.8674 19.8096 46.2811 20.1346 47.5684 20.7848C48.8786 21.435 49.982 22.3654 50.8785 23.576L48.2235 26.4008C47.6718 25.5713 46.9592 24.9212 46.0857 24.4504C45.2122 23.9571 44.2697 23.7105 43.2583 23.7105C42.2239 23.7105 41.3274 23.9796 40.5688 24.5176C39.8102 25.0557 39.2241 25.8404 38.8103 26.8716C38.3965 27.8805 38.1667 29.1024 38.1207 30.5372C38.4425 29.9991 38.8563 29.5395 39.362 29.1584C39.8677 28.7549 40.4539 28.4522 41.1205 28.2504C41.7871 28.0262 42.4997 27.9141 43.2583 27.9141C44.8904 27.9141 46.3501 28.2728 47.6373 28.9903C48.9246 29.6853 49.936 30.6381 50.6716 31.8487C51.4302 33.0369 51.8095 34.3821 51.8095 35.8842ZM42.8445 40.3905C43.6721 40.3905 44.4306 40.1887 45.1202 39.7851C45.8099 39.3592 46.3615 38.8099 46.7753 38.1373C47.1891 37.4423 47.396 36.6913 47.396 35.8842C47.396 35.0771 47.1891 34.3485 46.7753 33.6983C46.3615 33.0257 45.8099 32.4989 45.1202 32.1177C44.4536 31.7142 43.7065 31.5124 42.879 31.5124C42.0515 31.5124 41.2929 31.7142 40.6033 32.1177C39.9137 32.4989 39.362 33.0257 38.9482 33.6983C38.5574 34.3485 38.3621 35.0771 38.3621 35.8842C38.3621 36.6913 38.5689 37.4423 38.9827 38.1373C39.3965 38.8099 39.9482 39.3592 40.6378 39.7851C41.3274 40.1887 42.063 40.3905 42.8445 40.3905Z" fill="#D7A3E5"/>
</svg>
