<svg width="64" height="64" viewBox="0 0 64 64" fill="none" xmlns="http://www.w3.org/2000/svg">
<path fill-rule="evenodd" clip-rule="evenodd" d="M0 32C0 14.3269 14.3269 0 32 0C49.6731 0 64 14.3269 64 32C64 49.6731 49.6731 64 32 64C14.3269 64 0 49.6731 0 32ZM32 3.04762C16.01 3.04762 3.04762 16.01 3.04762 32C3.04762 47.99 16.01 60.9524 32 60.9524C47.99 60.9524 60.9524 47.99 60.9524 32C60.9524 16.01 47.99 3.04762 32 3.04762Z" fill="#D7A3E5"/>
<path d="M44.7661 23.999H34.0681V19.8096H51.8095L40.0816 44.1905H35.0316L44.7661 23.999Z" fill="#D7A3E5"/>
<path d="M27.5722 26.2024C27.4211 26.0462 27.1404 25.8342 26.7302 25.5665C26.3417 25.2987 25.8559 25.0421 25.273 24.7966C24.7117 24.5512 24.0965 24.3392 23.4272 24.1607C22.758 23.9599 22.0779 23.8595 21.3871 23.8595C20.1782 23.8595 19.2606 24.0938 18.6346 24.5623C18.0301 25.0309 17.7279 25.6892 17.7279 26.5371C17.7279 27.1842 17.9222 27.6974 18.3108 28.0767C18.6993 28.456 19.2822 28.7796 20.0594 29.0474C20.8366 29.3151 21.8081 29.6052 22.9739 29.9176C24.485 30.2969 25.7911 30.7655 26.8922 31.3233C28.0148 31.8589 28.8675 32.5729 29.4504 33.4654C30.0549 34.3357 30.3571 35.496 30.3571 36.9463C30.3571 38.2182 30.1304 39.3116 29.6771 40.2264C29.2237 41.119 28.5976 41.8441 27.7989 42.402C27.0001 42.9598 26.0934 43.3726 25.0787 43.6404C24.0641 43.8858 22.9847 44.0086 21.8405 44.0086C20.6963 44.0086 19.5521 43.8858 18.4079 43.6404C17.2637 43.3949 16.1627 43.0491 15.1049 42.6028C14.047 42.1342 13.0756 41.5764 12.1904 40.9293L14.1658 36.9463C14.3601 37.1472 14.7055 37.4149 15.202 37.7496C15.6986 38.062 16.303 38.3856 17.0154 38.7203C17.7279 39.0326 18.5051 39.3004 19.347 39.5235C20.1889 39.7467 21.0417 39.8582 21.9052 39.8582C23.1142 39.8582 24.0317 39.6463 24.6578 39.2223C25.2838 38.7984 25.5969 38.1959 25.5969 37.4149C25.5969 36.7009 25.3486 36.143 24.8521 35.7414C24.3555 35.3398 23.6647 34.9939 22.7796 34.7038C21.8944 34.3914 20.8474 34.0567 19.6384 33.6997C18.192 33.2758 16.9831 32.8072 16.0116 32.294C15.0401 31.7584 14.3169 31.089 13.8419 30.2858C13.367 29.4825 13.1295 28.4784 13.1295 27.2734C13.1295 25.6445 13.4965 24.2834 14.2305 23.1901C14.9861 22.0744 16.0008 21.2376 17.2745 20.6798C18.5482 20.0996 19.9623 19.8096 21.5166 19.8096C22.5961 19.8096 23.6107 19.9323 24.5606 20.1777C25.5321 20.4232 26.4388 20.7467 27.2808 21.1484C28.1227 21.55 28.8783 21.9851 29.5475 22.4537L27.5722 26.2024Z" fill="#D7A3E5"/>
</svg>
