<svg width="64" height="64" viewBox="0 0 64 64" fill="none" xmlns="http://www.w3.org/2000/svg">
<path fill-rule="evenodd" clip-rule="evenodd" d="M0 32C0 14.3269 14.3269 0 32 0C49.6731 0 64 14.3269 64 32C64 49.6731 49.6731 64 32 64C14.3269 64 0 49.6731 0 32ZM32 3.04762C16.01 3.04762 3.04762 16.01 3.04762 32C3.04762 47.99 16.01 60.9524 32 60.9524C47.99 60.9524 60.9524 47.99 60.9524 32C60.9524 16.01 47.99 3.04762 32 3.04762Z" fill="#D7A3E5"/>
<path d="M51.8095 36.7639C51.8095 38.2559 51.4047 39.5557 50.5951 40.6634C49.808 41.7711 48.751 42.6414 47.4242 43.2744C46.0974 43.8847 44.6469 44.1899 43.0727 44.1899C41.476 44.1899 40.0143 43.8621 38.6874 43.2066C37.3831 42.551 36.3374 41.6581 35.5503 40.5278C34.7857 39.3749 34.4034 38.0637 34.4034 36.5944C34.4034 35.6901 34.5945 34.8763 34.9768 34.1529C35.3591 33.4069 35.8314 32.774 36.3936 32.2541C36.9783 31.7115 37.563 31.2933 38.1477 30.9994C37.608 30.7282 37.102 30.3665 36.6297 29.9144C36.18 29.4622 35.8202 28.9423 35.5503 28.3546C35.2804 27.7668 35.1455 27.1451 35.1455 26.4896C35.1455 25.4271 35.3816 24.4777 35.8539 23.6413C36.3262 22.8048 36.9558 22.1041 37.7429 21.5389C38.53 20.9512 39.3846 20.5217 40.3066 20.2504C41.2511 19.9565 42.1844 19.8096 43.1064 19.8096C44.006 19.8096 44.928 19.9565 45.8725 20.2504C46.817 20.5217 47.6828 20.9399 48.4699 21.505C49.257 22.0701 49.8867 22.7709 50.359 23.6073C50.8537 24.4211 51.1011 25.3706 51.1011 26.4557C51.1011 27.0886 50.9549 27.7103 50.6626 28.3206C50.3927 28.9084 50.0216 29.4396 49.5494 29.9144C49.0996 30.3665 48.5824 30.7282 47.9977 30.9994C48.6498 31.3385 49.2683 31.7793 49.853 32.3219C50.4377 32.8644 50.9099 33.5087 51.2698 34.2547C51.6296 35.0007 51.8095 35.8371 51.8095 36.7639ZM47.2218 36.4926C47.2218 35.9049 47.1094 35.3963 46.8845 34.9667C46.6596 34.5146 46.3448 34.1416 45.94 33.8478C45.5352 33.5313 45.0854 33.2939 44.5907 33.1357C44.0959 32.9774 43.5899 32.8983 43.0727 32.8983C42.3531 32.8983 41.6784 33.0453 41.0487 33.3391C40.4415 33.633 39.9468 34.0512 39.5645 34.5938C39.1822 35.1363 38.991 35.7693 38.991 36.4926C38.991 37.0352 39.1035 37.5325 39.3284 37.9846C39.5757 38.4141 39.8906 38.7871 40.2729 39.1036C40.6777 39.4201 41.1162 39.6687 41.5885 39.8496C42.0832 40.0078 42.5892 40.087 43.1064 40.087C43.8261 40.087 44.5007 39.9287 45.1304 39.6122C45.7601 39.2958 46.2661 38.8662 46.6484 38.3237C47.0307 37.7812 47.2218 37.1708 47.2218 36.4926ZM39.7332 26.6252C39.7332 27.2356 39.9018 27.7555 40.2392 28.185C40.5765 28.6145 41.0038 28.9423 41.521 29.1684C42.0607 29.3718 42.5892 29.4735 43.1064 29.4735C43.6462 29.4735 44.1634 29.3605 44.6581 29.1345C45.1754 28.9084 45.6027 28.5919 45.94 28.185C46.2998 27.7555 46.4797 27.2243 46.4797 26.5913C46.4797 26.0262 46.3223 25.5401 46.0075 25.1332C45.6926 24.7263 45.2766 24.4098 44.7593 24.1838C44.2646 23.9577 43.7024 23.8447 43.0727 23.8447C42.488 23.8447 41.937 23.9577 41.4198 24.1838C40.9026 24.4098 40.4865 24.7376 40.1717 25.1671C39.8793 25.574 39.7332 26.0601 39.7332 26.6252Z" fill="#D7A3E5"/>
<path d="M27.8079 26.6077C27.6545 26.4535 27.3695 26.2441 26.9531 25.9797C26.5585 25.7153 26.0653 25.4619 25.4735 25.2196C24.9036 24.9772 24.2789 24.7679 23.5994 24.5916C22.9199 24.3933 22.2295 24.2942 21.5281 24.2942C20.3006 24.2942 19.369 24.5255 18.7333 24.9882C18.1196 25.4509 17.8127 26.1009 17.8127 26.9382C17.8127 27.5772 18.01 28.0839 18.4046 28.4585C18.7991 28.8331 19.3909 29.1526 20.18 29.417C20.9691 29.6814 21.9555 29.9678 23.1391 30.2763C24.6735 30.6509 25.9996 31.1136 27.1175 31.6644C28.2573 32.1932 29.1231 32.8983 29.7149 33.7796C30.3287 34.6389 30.6355 35.7847 30.6355 37.2169C30.6355 38.4728 30.4054 39.5524 29.9451 40.4558C29.4848 41.3372 28.8491 42.0533 28.0381 42.6041C27.2271 43.1549 26.3065 43.5626 25.2763 43.827C24.246 44.0693 23.1501 44.1905 21.9884 44.1905C20.8266 44.1905 19.6649 44.0693 18.5032 43.827C17.3415 43.5846 16.2236 43.2431 15.1495 42.8024C14.0755 42.3397 13.0891 41.7889 12.1904 41.1499L14.196 37.2169C14.3933 37.4152 14.744 37.6796 15.2482 38.0101C15.7523 38.3186 16.3661 38.638 17.0894 38.9686C17.8127 39.277 18.6018 39.5414 19.4567 39.7618C20.3115 39.9821 21.1773 40.0923 22.0541 40.0923C23.2816 40.0923 24.2132 39.8829 24.8488 39.4643C25.4845 39.0457 25.8023 38.4508 25.8023 37.6796C25.8023 36.9745 25.5502 36.4237 25.0461 36.0271C24.542 35.6305 23.8405 35.2889 22.9418 35.0025C22.0432 34.694 20.9801 34.3635 19.7526 34.011C18.284 33.5923 17.0565 33.1296 16.0701 32.6229C15.0838 32.0941 14.3495 31.4331 13.8673 30.6398C13.385 29.8466 13.1439 28.8551 13.1439 27.6653C13.1439 26.0568 13.5165 24.7128 14.2618 23.6331C15.029 22.5315 16.0592 21.7052 17.3524 21.1544C18.6457 20.5815 20.0814 20.2951 21.6596 20.2951C22.7555 20.2951 23.7857 20.4162 24.7502 20.6586C25.7366 20.901 26.6572 21.2205 27.512 21.6171C28.3669 22.0137 29.1341 22.4433 29.8135 22.906L27.8079 26.6077Z" fill="#D7A3E5"/>
</svg>
