<svg width="64" height="64" viewBox="0 0 64 64" fill="none" xmlns="http://www.w3.org/2000/svg">
<path fill-rule="evenodd" clip-rule="evenodd" d="M0 32C0 14.3269 14.3269 0 32 0C49.6731 0 64 14.3269 64 32C64 49.6731 49.6731 64 32 64C14.3269 64 0 49.6731 0 32ZM32 3.04762C16.01 3.04762 3.04762 16.01 3.04762 32C3.04762 47.99 16.01 60.9524 32 60.9524C47.99 60.9524 60.9524 47.99 60.9524 32C60.9524 16.01 47.99 3.04762 32 3.04762Z" fill="#D7A3E5"/>
<path d="M34.2348 28.1159C34.2348 26.5466 34.6171 25.1341 35.3817 23.8787C36.1688 22.6232 37.2257 21.6367 38.5525 20.9193C39.8794 20.1795 41.3636 19.8096 43.0053 19.8096C44.8043 19.8096 46.356 20.2467 47.6604 21.1211C48.9872 21.973 50.0104 23.2173 50.73 24.8539C51.4497 26.4681 51.8095 28.4298 51.8095 30.739C51.8095 33.631 51.4272 36.086 50.6626 38.1037C49.9205 40.099 48.8522 41.6123 47.458 42.6436C46.0637 43.6749 44.422 44.1905 42.533 44.1905C41.0488 44.1905 39.6657 43.8654 38.3839 43.2153C37.102 42.5427 36.0226 41.6011 35.1456 40.3905L37.743 37.5656C38.2827 38.3951 38.9798 39.0565 39.8344 39.5497C40.6889 40.0205 41.611 40.2559 42.6005 40.2559C43.6124 40.2559 44.4895 39.9869 45.2316 39.4488C45.9737 38.9108 46.5472 38.1373 46.952 37.1285C47.3793 36.0972 47.6041 34.8641 47.6266 33.4293C47.3118 33.9673 46.907 34.4381 46.4123 34.8417C45.9175 35.2452 45.3441 35.5479 44.6919 35.7497C44.0622 35.9514 43.3651 36.0523 42.6005 36.0523C41.0263 36.0523 39.5983 35.7048 38.3164 35.0098C37.0571 34.2924 36.0563 33.3396 35.3142 32.1514C34.5946 30.9407 34.2348 29.5956 34.2348 28.1159ZM42.9715 23.576C42.1844 23.576 41.4536 23.789 40.7789 24.215C40.1267 24.6185 39.5983 25.1678 39.1935 25.8628C38.7887 26.5354 38.5863 27.2752 38.5863 28.0823C38.5863 28.8894 38.7774 29.6292 39.1597 30.3018C39.5645 30.9519 40.1042 31.4788 40.7789 31.8823C41.4536 32.2635 42.1957 32.454 43.0053 32.454C43.8148 32.454 44.5457 32.2635 45.1979 31.8823C45.8725 31.4788 46.4123 30.9519 46.817 30.3018C47.2218 29.6292 47.4242 28.9006 47.4242 28.1159C47.4242 27.2864 47.2106 26.5354 46.7833 25.8628C46.3785 25.1902 45.8388 24.6409 45.1641 24.215C44.512 23.789 43.7811 23.576 42.9715 23.576Z" fill="#D7A3E5"/>
<path d="M27.8079 26.0701C27.6545 25.9172 27.3695 25.7096 26.953 25.4473C26.5585 25.1851 26.0653 24.9338 25.4735 24.6935C24.9036 24.4531 24.2789 24.2455 23.5994 24.0707C22.9199 23.874 22.2294 23.7757 21.528 23.7757C20.3006 23.7757 19.369 24.0051 18.7333 24.464C18.1196 24.9229 17.8127 25.5675 17.8127 26.3979C17.8127 27.0316 18.01 27.5342 18.4045 27.9057C18.7991 28.2772 19.3909 28.594 20.18 28.8562C20.9691 29.1185 21.9555 29.4025 23.1391 29.7085C24.6734 30.0799 25.9996 30.5388 27.1174 31.0851C28.2572 31.6096 29.1231 32.3088 29.7149 33.1829C30.3286 34.0351 30.6355 35.1714 30.6355 36.5918C30.6355 37.8373 30.4053 38.9081 29.945 39.804C29.4847 40.6781 28.8491 41.3883 28.038 41.9346C27.227 42.4809 26.3064 42.8851 25.2762 43.1473C24.246 43.3877 23.1501 43.5079 21.9883 43.5079C20.8266 43.5079 19.6649 43.3877 18.5032 43.1473C17.3415 42.907 16.2236 42.5683 15.1495 42.1312C14.0755 41.6723 13.0891 41.126 12.1904 40.4923L14.196 36.5918C14.3933 36.7884 14.744 37.0507 15.2482 37.3784C15.7523 37.6844 16.366 38.0012 17.0894 38.329C17.8127 38.6349 18.6018 38.8972 19.4567 39.1157C20.3115 39.3342 21.1773 39.4434 22.0541 39.4434C23.2816 39.4434 24.2131 39.2359 24.8488 38.8207C25.4845 38.4055 25.8023 37.8155 25.8023 37.0507C25.8023 36.3514 25.5502 35.8051 25.0461 35.4118C24.5419 35.0184 23.8405 34.6797 22.9418 34.3957C22.0431 34.0897 20.98 33.762 19.7526 33.4123C18.284 32.9972 17.0565 32.5383 16.0701 32.0357C15.0838 31.5112 14.3495 30.8557 13.8673 30.069C13.385 29.2823 13.1439 28.299 13.1439 27.119C13.1439 25.5238 13.5165 24.1909 14.2618 23.1201C15.029 22.0275 16.0592 21.2081 17.3524 20.6618C18.6456 20.0936 20.0814 19.8096 21.6595 19.8096C22.7555 19.8096 23.7857 19.9298 24.7502 20.1701C25.7365 20.4105 26.6571 20.7273 27.512 21.1207C28.3668 21.514 29.134 21.9401 29.8135 22.399L27.8079 26.0701Z" fill="#D7A3E5"/>
</svg>
