<svg width="64" height="64" viewBox="0 0 64 64" fill="none" xmlns="http://www.w3.org/2000/svg">
<path fill-rule="evenodd" clip-rule="evenodd" d="M0 32C0 14.3269 14.3269 0 32 0C49.6731 0 64 14.3269 64 32C64 49.6731 49.6731 64 32 64C14.3269 64 0 49.6731 0 32ZM32 3.04762C16.01 3.04762 3.04762 16.01 3.04762 32C3.04762 47.99 16.01 60.9524 32 60.9524C47.99 60.9524 60.9524 47.99 60.9524 32C60.9524 16.01 47.99 3.04762 32 3.04762Z" fill="#D7A3E5"/>
<path d="M19.9121 32.6399C18.6084 32.6399 17.3631 32.4259 16.1762 31.9978C14.9893 31.5697 13.9677 30.9373 13.1116 30.1006L14.5125 27.5613C15.4271 28.3007 16.3221 28.8455 17.1977 29.1958C18.0928 29.546 18.9489 29.7212 19.7662 29.7212C20.525 29.7212 21.1282 29.585 21.5758 29.3125C22.0428 29.0401 22.2763 28.6315 22.2763 28.0867C22.2763 27.717 22.1498 27.4348 21.8968 27.2402C21.6439 27.0262 21.2742 26.8413 20.7877 26.6857C20.3207 26.53 19.7467 26.3549 19.0657 26.1603C17.9371 25.7906 16.9934 25.4306 16.2346 25.0804C15.4757 24.7301 14.9017 24.2923 14.5125 23.7669C14.1428 23.2221 13.958 22.5313 13.958 21.6946C13.958 20.6828 14.2109 19.8169 14.7169 19.097C15.2422 18.3575 15.9622 17.7835 16.8767 17.3749C17.8107 16.9663 18.9003 16.762 20.1456 16.762C21.2353 16.762 22.2665 16.9371 23.2394 17.2873C24.2123 17.6181 25.0977 18.163 25.8954 18.9218L24.3193 21.4028C23.541 20.7996 22.8016 20.3617 22.1011 20.0893C21.4006 19.7975 20.6904 19.6515 19.9705 19.6515C19.5619 19.6515 19.1727 19.7002 18.803 19.7975C18.4528 19.8947 18.1609 20.0601 17.9274 20.2936C17.7134 20.5077 17.6064 20.819 17.6064 21.2276C17.6064 21.5973 17.7036 21.8892 17.8982 22.1033C18.1123 22.2978 18.4236 22.473 18.8322 22.6286C19.2603 22.7843 19.7759 22.9594 20.3791 23.154C21.605 23.5043 22.6362 23.8642 23.4729 24.2339C24.3291 24.6036 24.9712 25.0609 25.3993 25.6057C25.8273 26.1311 26.0414 26.8608 26.0414 27.7948C26.0414 29.3125 25.4868 30.4995 24.3777 31.3557C23.2686 32.2118 21.7801 32.6399 19.9121 32.6399Z" fill="#D7A3E5"/>
<path d="M39.8685 21.9865L25.3918 42.7096H21.0721L35.5196 21.9865H39.8685Z" fill="#D7A3E5"/>
<path d="M50.8877 47.2382H46.9767V38.6571C46.9767 37.4312 46.7626 36.5361 46.3345 35.9718C45.9065 35.4075 45.313 35.1254 44.5541 35.1254C44.0288 35.1254 43.4937 35.2616 42.9489 35.534C42.4235 35.8064 41.9468 36.1859 41.5187 36.6723C41.0906 37.1393 40.7793 37.6841 40.5847 38.3068V47.2382H36.6737V31.944H40.2053V34.7751C40.5945 34.1136 41.0906 33.559 41.6938 33.1115C42.297 32.6445 42.9878 32.2942 43.7661 32.0607C44.5639 31.8077 45.4006 31.6813 46.2762 31.6813C47.2296 31.6813 48.0079 31.8564 48.6111 32.2066C49.2338 32.5374 49.7008 32.9947 50.0121 33.5785C50.3429 34.1427 50.5666 34.7849 50.6834 35.5048C50.8196 36.2248 50.8877 36.9545 50.8877 37.6939V47.2382Z" fill="#D7A3E5"/>
</svg>
